<svg width="134" height="48" viewBox="0 0 134 48" fill="none" xmlns="http://www.w3.org/2000/svg">
<g id="Logotext" opacity="0.84">
<g id="Aerospace">
<path d="M5.27965 33.0004H0.666016L7.69585 12.6367H13.2441L20.264 33.0004H15.6504L10.5495 17.2901H10.3904L5.27965 33.0004ZM4.9913 24.9961H15.889V28.3569H4.9913V24.9961Z" fill="white"/>
<path d="M27.2048 33.2987C25.6337 33.2987 24.2815 32.9805 23.1479 32.3441C22.0211 31.7011 21.1527 30.793 20.5428 29.6197C19.933 28.4398 19.6281 27.0444 19.6281 25.4336C19.6281 23.8626 19.933 22.4838 20.5428 21.2972C21.1527 20.1107 22.0111 19.186 23.1181 18.5231C24.2318 17.8602 25.5376 17.5288 27.0357 17.5288C28.0433 17.5288 28.9813 17.6912 29.8497 18.016C30.7247 18.3342 31.487 18.8147 32.1366 19.4577C32.7928 20.1007 33.3033 20.9094 33.6678 21.8839C34.0324 22.8517 34.2147 23.9852 34.2147 25.2844V26.4478H21.3184V23.8228H30.2275C30.2275 23.213 30.0949 22.6727 29.8298 22.2021C29.5646 21.7314 29.1967 21.3635 28.7261 21.0984C28.2621 20.8266 27.7218 20.6907 27.1053 20.6907C26.4623 20.6907 25.8923 20.8398 25.3951 21.1381C24.9046 21.4298 24.5201 21.8242 24.2417 22.3214C23.9633 22.8119 23.8208 23.3588 23.8141 23.962V26.4577C23.8141 27.2134 23.9533 27.8664 24.2318 28.4165C24.5168 28.9667 24.9178 29.391 25.4349 29.6893C25.9519 29.9876 26.5651 30.1367 27.2744 30.1367C27.745 30.1367 28.1759 30.0704 28.567 29.9379C28.9581 29.8053 29.2928 29.6064 29.5712 29.3413C29.8497 29.0761 30.0618 28.7513 30.2076 28.3668L34.1252 28.6254C33.9264 29.5666 33.5187 30.3886 32.9022 31.0913C32.2924 31.7873 31.5035 32.3308 30.5357 32.7219C29.5746 33.1064 28.4642 33.2987 27.2048 33.2987Z" fill="white"/>
<path d="M35.2989 33.0004V17.7276H39.4054V20.3924H39.5645C39.8429 19.4445 40.3103 18.7286 40.9665 18.2447C41.6228 17.7541 42.3785 17.5089 43.2336 17.5089C43.4457 17.5089 43.6744 17.5221 43.9197 17.5487C44.1649 17.5752 44.3804 17.6116 44.566 17.658V21.4165C44.3671 21.3569 44.092 21.3039 43.7407 21.2575C43.3893 21.2111 43.0679 21.1879 42.7762 21.1879C42.1531 21.1879 41.5963 21.3237 41.1057 21.5955C40.6218 21.8607 40.2374 22.2319 39.9523 22.7092C39.6739 23.1864 39.5347 23.7366 39.5347 24.3597V33.0004H35.2989Z" fill="white"/>
<path d="M51.2656 33.2987C49.7211 33.2987 48.3854 32.9705 47.2585 32.3143C46.1382 31.6514 45.2732 30.73 44.6633 29.5501C44.0535 28.3635 43.7485 26.988 43.7485 25.4237C43.7485 23.846 44.0535 22.4672 44.6633 21.2873C45.2732 20.1007 46.1382 19.1793 47.2585 18.5231C48.3854 17.8602 49.7211 17.5288 51.2656 17.5288C52.8101 17.5288 54.1425 17.8602 55.2627 18.5231C56.3896 19.1793 57.258 20.1007 57.8678 21.2873C58.4777 22.4672 58.7826 23.846 58.7826 25.4237C58.7826 26.988 58.4777 28.3635 57.8678 29.5501C57.258 30.73 56.3896 31.6514 55.2627 32.3143C54.1425 32.9705 52.8101 33.2987 51.2656 33.2987ZM51.2855 30.0174C51.9881 30.0174 52.5748 29.8185 53.0454 29.4208C53.516 29.0165 53.8707 28.4663 54.1093 27.7702C54.3546 27.0742 54.4772 26.2821 54.4772 25.3938C54.4772 24.5056 54.3546 23.7134 54.1093 23.0174C53.8707 22.3214 53.516 21.7712 53.0454 21.3668C52.5748 20.9625 51.9881 20.7603 51.2855 20.7603C50.5762 20.7603 49.9796 20.9625 49.4957 21.3668C49.0184 21.7712 48.6571 22.3214 48.4119 23.0174C48.1732 23.7134 48.0539 24.5056 48.0539 25.3938C48.0539 26.2821 48.1732 27.0742 48.4119 27.7702C48.6571 28.4663 49.0184 29.0165 49.4957 29.4208C49.9796 29.8185 50.5762 30.0174 51.2855 30.0174Z" fill="white"/>
<path d="M72.5643 22.0827L68.6864 22.3214C68.6201 21.9899 68.4776 21.6916 68.2589 21.4265C68.0401 21.1547 67.7518 20.9393 67.3938 20.7802C67.0425 20.6145 66.6216 20.5316 66.131 20.5316C65.4748 20.5316 64.9213 20.6708 64.4705 20.9492C64.0198 21.221 63.7944 21.5856 63.7944 22.043C63.7944 22.4076 63.9402 22.7158 64.2319 22.9677C64.5235 23.2196 65.024 23.4218 65.7333 23.5742L68.4975 24.131C69.9824 24.436 71.0894 24.9265 71.8185 25.6026C72.5477 26.2788 72.9123 27.167 72.9123 28.2674C72.9123 29.2683 72.6173 30.1467 72.0273 30.9023C71.444 31.658 70.6419 32.248 69.6211 32.6722C68.6069 33.0898 67.4369 33.2987 66.1111 33.2987C64.0894 33.2987 62.4786 32.8777 61.2788 32.0359C60.0856 31.1874 59.3862 30.034 59.1807 28.5756L63.3469 28.3569C63.4729 28.9734 63.7778 29.444 64.2617 29.7688C64.7456 30.087 65.3654 30.2461 66.1211 30.2461C66.8635 30.2461 67.4601 30.1036 67.9109 29.8185C68.3682 29.5269 68.6003 29.1523 68.6069 28.695C68.6003 28.3105 68.4379 27.9956 68.1197 27.7504C67.8015 27.4985 67.311 27.3062 66.6481 27.1737L64.0032 26.6467C62.5117 26.3484 61.4014 25.8313 60.6722 25.0955C59.9497 24.3597 59.5884 23.4218 59.5884 22.2816C59.5884 21.3005 59.8536 20.4554 60.3839 19.7461C60.9208 19.0368 61.6732 18.4899 62.641 18.1055C63.6154 17.721 64.7556 17.5288 66.0614 17.5288C67.9904 17.5288 69.5084 17.9364 70.6154 18.7518C71.729 19.5671 72.3787 20.6774 72.5643 22.0827Z" fill="white"/>
<path d="M73.8995 38.7276V17.7276H78.0757V20.293H78.2646C78.4502 19.882 78.7187 19.4644 79.07 19.0401C79.4279 18.6093 79.892 18.2513 80.462 17.9663C81.0387 17.6746 81.7547 17.5288 82.6098 17.5288C83.7234 17.5288 84.7509 17.8204 85.6922 18.4038C86.6334 18.9805 87.3858 19.8522 87.9492 21.0188C88.5127 22.1789 88.7944 23.6339 88.7944 25.3839C88.7944 27.0875 88.5193 28.5259 87.9691 29.6992C87.4256 30.8659 86.6832 31.7508 85.7419 32.354C84.8072 32.9506 83.7599 33.2489 82.5998 33.2489C81.7779 33.2489 81.0785 33.113 80.5018 32.8413C79.9317 32.5695 79.4644 32.2281 79.0998 31.8171C78.7352 31.3995 78.4568 30.9786 78.2646 30.5543H78.1353V38.7276H73.8995ZM78.0458 25.364C78.0458 26.2721 78.1718 27.0643 78.4237 27.7404C78.6756 28.4165 79.0402 28.9435 79.5174 29.3214C79.9947 29.6926 80.5747 29.8782 81.2575 29.8782C81.9469 29.8782 82.5302 29.6893 83.0075 29.3114C83.4848 28.927 83.846 28.3967 84.0913 27.7205C84.3432 27.0378 84.4691 26.2522 84.4691 25.364C84.4691 24.4824 84.3465 23.7068 84.1012 23.0373C83.856 22.3678 83.4947 21.8441 83.0174 21.4663C82.5402 21.0884 81.9535 20.8995 81.2575 20.8995C80.5681 20.8995 79.9848 21.0818 79.5075 21.4464C79.0368 21.811 78.6756 22.328 78.4237 22.9975C78.1718 23.667 78.0458 24.4558 78.0458 25.364Z" fill="white"/>
<path d="M94.2934 33.2887C93.319 33.2887 92.4506 33.1197 91.6883 32.7816C90.926 32.4369 90.3228 31.9298 89.8786 31.2603C89.4411 30.5842 89.2224 29.7423 89.2224 28.7347C89.2224 27.8862 89.3782 27.1737 89.6897 26.5969C90.0013 26.0202 90.4255 25.5562 90.9624 25.2049C91.4994 24.8536 92.1092 24.5884 92.792 24.4094C93.4814 24.2305 94.2039 24.1045 94.9596 24.0316C95.8479 23.9388 96.5638 23.8526 97.1073 23.7731C97.6509 23.6869 98.0453 23.561 98.2906 23.3952C98.5358 23.2295 98.6585 22.9843 98.6585 22.6594V22.5998C98.6585 21.9701 98.4596 21.4828 98.0619 21.1381C97.6708 20.7934 97.114 20.6211 96.3914 20.6211C95.6291 20.6211 95.0226 20.7901 94.5718 21.1282C94.121 21.4596 93.8228 21.8772 93.6769 22.381L89.7593 22.0629C89.9582 21.1348 90.3493 20.3327 90.9326 19.6566C91.5159 18.9738 92.2683 18.4502 93.1897 18.0856C94.1177 17.7144 95.1916 17.5288 96.4113 17.5288C97.2598 17.5288 98.0718 17.6282 98.8474 17.8271C99.6296 18.0259 100.322 18.3342 100.926 18.7518C101.535 19.1694 102.016 19.7063 102.367 20.3626C102.719 21.0122 102.894 21.7911 102.894 22.6992V33.0004H98.8772V30.8825H98.7579C98.5126 31.3597 98.1845 31.7807 97.7735 32.1452C97.3625 32.5032 96.8687 32.7849 96.292 32.9904C95.7153 33.1893 95.0491 33.2887 94.2934 33.2887ZM95.5065 30.3654C96.1296 30.3654 96.6798 30.2428 97.157 29.9975C97.6343 29.7456 98.0088 29.4076 98.2806 28.9833C98.5524 28.5591 98.6883 28.0785 98.6883 27.5415V25.9208C98.5557 26.007 98.3734 26.0865 98.1414 26.1594C97.916 26.2257 97.6608 26.2887 97.3758 26.3484C97.0907 26.4014 96.8057 26.4511 96.5207 26.4975C96.2356 26.5373 95.9771 26.5737 95.7451 26.6069C95.2479 26.6798 94.8138 26.7958 94.4426 26.9549C94.0713 27.114 93.783 27.3294 93.5775 27.6012C93.372 27.8664 93.2692 28.1978 93.2692 28.5955C93.2692 29.1722 93.4781 29.613 93.8957 29.918C94.3199 30.2163 94.8568 30.3654 95.5065 30.3654Z" fill="white"/>
<path d="M111.401 33.2987C109.837 33.2987 108.491 32.9672 107.364 32.3043C106.244 31.6348 105.382 30.7068 104.779 29.5202C104.182 28.3337 103.884 26.9682 103.884 25.4237C103.884 23.8593 104.186 22.4871 104.789 21.3072C105.399 20.1206 106.264 19.1959 107.384 18.533C108.504 17.8635 109.837 17.5288 111.381 17.5288C112.714 17.5288 113.88 17.7707 114.881 18.2546C115.882 18.7385 116.674 19.418 117.258 20.293C117.841 21.168 118.162 22.1954 118.222 23.3754H114.225C114.112 22.613 113.814 21.9999 113.33 21.5359C112.853 21.0652 112.226 20.8299 111.451 20.8299C110.795 20.8299 110.221 21.0089 109.731 21.3668C109.247 21.7182 108.869 22.2319 108.597 22.908C108.325 23.5842 108.189 24.4028 108.189 25.364C108.189 26.3384 108.322 27.167 108.587 27.8498C108.859 28.5326 109.24 29.0529 109.731 29.4109C110.221 29.7688 110.795 29.9478 111.451 29.9478C111.935 29.9478 112.369 29.8484 112.753 29.6495C113.144 29.4506 113.466 29.1623 113.718 28.7844C113.976 28.4 114.145 27.9393 114.225 27.4023H118.222C118.156 28.569 117.838 29.5965 117.268 30.4847C116.704 31.3664 115.925 32.0558 114.931 32.5529C113.937 33.0501 112.76 33.2987 111.401 33.2987Z" fill="white"/>
<path d="M126.214 33.2987C124.643 33.2987 123.291 32.9805 122.157 32.3441C121.031 31.7011 120.162 30.793 119.552 29.6197C118.943 28.4398 118.638 27.0444 118.638 25.4336C118.638 23.8626 118.943 22.4838 119.552 21.2972C120.162 20.1107 121.021 19.186 122.128 18.5231C123.241 17.8602 124.547 17.5288 126.045 17.5288C127.053 17.5288 127.991 17.6912 128.859 18.016C129.734 18.3342 130.496 18.8147 131.146 19.4577C131.802 20.1007 132.313 20.9094 132.677 21.8839C133.042 22.8517 133.224 23.9852 133.224 25.2844V26.4478H120.328V23.8228H129.237C129.237 23.213 129.104 22.6727 128.839 22.2021C128.574 21.7314 128.206 21.3635 127.736 21.0984C127.272 20.8266 126.731 20.6907 126.115 20.6907C125.472 20.6907 124.902 20.8398 124.405 21.1381C123.914 21.4298 123.53 21.8242 123.251 22.3214C122.973 22.8119 122.83 23.3588 122.824 23.962V26.4577C122.824 27.2134 122.963 27.8664 123.241 28.4165C123.526 28.9667 123.927 29.391 124.444 29.6893C124.961 29.9876 125.575 30.1367 126.284 30.1367C126.755 30.1367 127.185 30.0704 127.577 29.9379C127.968 29.8053 128.302 29.6064 128.581 29.3413C128.859 29.0761 129.071 28.7513 129.217 28.3668L133.135 28.6254C132.936 29.5666 132.528 30.3886 131.912 31.0913C131.302 31.7873 130.513 32.3308 129.545 32.7219C128.584 33.1064 127.474 33.2987 126.214 33.2987Z" fill="white"/>
</g>
</g>
</svg>
