<svg width="144" height="48" viewBox="0 0 144 48" fill="none" xmlns="http://www.w3.org/2000/svg">
  <g opacity="0.84">
    <path d="M5.27977 32.9999H0.666138L7.69597 12.6363H13.2443L20.2642 32.9999H15.6505L10.5497 17.2897H10.3906L5.27977 32.9999ZM4.99142 24.9956H15.8891V28.3564H4.99142V24.9956Z" fill="white"/>
    <path d="M30.7496 26.497V17.7272H34.9854V32.9999H30.9187V30.2257H30.7596C30.4149 31.1206 29.8415 31.8399 29.0394 32.3834C28.2439 32.927 27.2728 33.1988 26.1261 33.1988C25.1052 33.1988 24.207 32.9667 23.4314 32.5027C22.6559 32.0387 22.0493 31.3792 21.6118 30.524C21.181 29.6689 20.9622 28.6448 20.9556 27.4516V17.7272H25.1914V26.6959C25.198 27.5974 25.44 28.31 25.9172 28.8337C26.3945 29.3574 27.0342 29.6192 27.8363 29.6192C28.3467 29.6192 28.824 29.5032 29.2681 29.2712C29.7122 29.0326 30.0702 28.6812 30.342 28.2172C30.6204 27.7532 30.7563 27.1798 30.7496 26.497Z" fill="white"/>
    <path d="M44.8171 17.7272V20.909H35.6197V17.7272H44.8171ZM37.7078 14.0681H41.9436V28.3067C41.9436 28.6978 42.0032 29.0027 42.1225 29.2215C42.2419 29.4336 42.4076 29.5828 42.6197 29.6689C42.8385 29.7551 43.0903 29.7982 43.3754 29.7982C43.5742 29.7982 43.7731 29.7816 43.972 29.7485C44.1708 29.7087 44.3233 29.6789 44.4294 29.659L45.0956 32.811C44.8834 32.8773 44.5851 32.9535 44.2007 33.0397C43.8162 33.1325 43.3489 33.1888 42.7987 33.2087C41.7778 33.2485 40.883 33.1126 40.114 32.801C39.3517 32.4895 38.7584 32.0056 38.3342 31.3493C37.9099 30.6931 37.7011 29.8645 37.7078 28.8635V14.0681Z" fill="white"/>
    <path d="M52.6329 33.2982C51.0884 33.2982 49.7527 32.9701 48.6258 32.3138C47.5055 31.6509 46.6405 30.7295 46.0306 29.5496C45.4208 28.3631 45.1158 26.9876 45.1158 25.4232C45.1158 23.8455 45.4208 22.4667 46.0306 21.2868C46.6405 20.1003 47.5055 19.1789 48.6258 18.5226C49.7527 17.8597 51.0884 17.5283 52.6329 17.5283C54.1774 17.5283 55.5098 17.8597 56.63 18.5226C57.7569 19.1789 58.6253 20.1003 59.2352 21.2868C59.845 22.4667 60.1499 23.8455 60.1499 25.4232C60.1499 26.9876 59.845 28.3631 59.2352 29.5496C58.6253 30.7295 57.7569 31.6509 56.63 32.3138C55.5098 32.9701 54.1774 33.2982 52.6329 33.2982ZM52.6528 30.0169C53.3554 30.0169 53.9421 29.8181 54.4127 29.4203C54.8834 29.016 55.238 28.4658 55.4766 27.7698C55.7219 27.0738 55.8445 26.2816 55.8445 25.3934C55.8445 24.5051 55.7219 23.713 55.4766 23.0169C55.238 22.3209 54.8834 21.7707 54.4127 21.3664C53.9421 20.962 53.3554 20.7598 52.6528 20.7598C51.9435 20.7598 51.3469 20.962 50.863 21.3664C50.3857 21.7707 50.0245 22.3209 49.7792 23.0169C49.5406 23.713 49.4212 24.5051 49.4212 25.3934C49.4212 26.2816 49.5406 27.0738 49.7792 27.7698C50.0245 28.4658 50.3857 29.016 50.863 29.4203C51.3469 29.8181 51.9435 30.0169 52.6528 30.0169Z" fill="white"/>
    <path d="M61.2242 32.9999V17.7272H65.2611V20.4218H65.4401C65.7583 19.5269 66.2886 18.8209 67.031 18.3039C67.7734 17.7868 68.6617 17.5283 69.6958 17.5283C70.7431 17.5283 71.6347 17.7901 72.3705 18.3138C73.1063 18.8309 73.5968 19.5335 73.8421 20.4218H74.0012C74.3127 19.5468 74.8762 18.8474 75.6915 18.3238C76.5135 17.7935 77.4846 17.5283 78.6049 17.5283C80.0301 17.5283 81.1868 17.9824 82.075 18.8905C82.9699 19.792 83.4174 21.0714 83.4174 22.7286V32.9999H79.1915V23.5638C79.1915 22.7153 78.9661 22.079 78.5154 21.6547C78.0646 21.2305 77.5012 21.0184 76.825 21.0184C76.0561 21.0184 75.4562 21.2636 75.0253 21.7542C74.5945 22.2381 74.379 22.8777 74.379 23.6732V32.9999H70.2725V23.4743C70.2725 22.7253 70.0571 22.1287 69.6262 21.6845C69.2019 21.2404 68.6418 21.0184 67.9458 21.0184C67.4751 21.0184 67.0509 21.1377 66.6731 21.3763C66.3018 21.6083 66.0069 21.9364 65.7881 22.3607C65.5694 22.7783 65.46 23.2688 65.46 23.8323V32.9999H61.2242Z" fill="white"/>
    <path d="M91.9838 33.2982C90.4393 33.2982 89.1036 32.9701 87.9767 32.3138C86.8565 31.6509 85.9914 30.7295 85.3815 29.5496C84.7717 28.3631 84.4668 26.9876 84.4668 25.4232C84.4668 23.8455 84.7717 22.4667 85.3815 21.2868C85.9914 20.1003 86.8565 19.1789 87.9767 18.5226C89.1036 17.8597 90.4393 17.5283 91.9838 17.5283C93.5283 17.5283 94.8607 17.8597 95.981 18.5226C97.1079 19.1789 97.9762 20.1003 98.5861 21.2868C99.1959 22.4667 99.5009 23.8455 99.5009 25.4232C99.5009 26.9876 99.1959 28.3631 98.5861 29.5496C97.9762 30.7295 97.1079 31.6509 95.981 32.3138C94.8607 32.9701 93.5283 33.2982 91.9838 33.2982ZM92.0037 30.0169C92.7064 30.0169 93.293 29.8181 93.7636 29.4203C94.2343 29.016 94.5889 28.4658 94.8276 27.7698C95.0728 27.0738 95.1955 26.2816 95.1955 25.3934C95.1955 24.5051 95.0728 23.713 94.8276 23.0169C94.5889 22.3209 94.2343 21.7707 93.7636 21.3664C93.293 20.962 92.7064 20.7598 92.0037 20.7598C91.2944 20.7598 90.6978 20.962 90.2139 21.3664C89.7367 21.7707 89.3754 22.3209 89.1301 23.0169C88.8915 23.713 88.7722 24.5051 88.7722 25.3934C88.7722 26.2816 88.8915 27.0738 89.1301 27.7698C89.3754 28.4658 89.7367 29.016 90.2139 29.4203C90.6978 29.8181 91.2944 30.0169 92.0037 30.0169Z" fill="white"/>
    <path d="M108.699 17.7272V20.909H99.5013V17.7272H108.699ZM101.589 14.0681H105.825V28.3067C105.825 28.6978 105.885 29.0027 106.004 29.2215C106.123 29.4336 106.289 29.5828 106.501 29.6689C106.72 29.7551 106.972 29.7982 107.257 29.7982C107.456 29.7982 107.655 29.7816 107.854 29.7485C108.052 29.7087 108.205 29.6789 108.311 29.659L108.977 32.811C108.765 32.8773 108.467 32.9535 108.082 33.0397C107.698 33.1325 107.23 33.1888 106.68 33.2087C105.659 33.2485 104.765 33.1126 103.996 32.801C103.233 32.4895 102.64 32.0056 102.216 31.3493C101.792 30.6931 101.583 29.8645 101.589 28.8635V14.0681Z" fill="white"/>
    <path d="M109.778 32.9999V17.7272H114.014V32.9999H109.778ZM111.906 15.7584C111.276 15.7584 110.736 15.5496 110.285 15.132C109.841 14.7077 109.619 14.2006 109.619 13.6107C109.619 13.0274 109.841 12.5269 110.285 12.1093C110.736 11.685 111.276 11.4729 111.906 11.4729C112.536 11.4729 113.072 11.685 113.517 12.1093C113.967 12.5269 114.193 13.0274 114.193 13.6107C114.193 14.2006 113.967 14.7077 113.517 15.132C113.072 15.5496 112.536 15.7584 111.906 15.7584Z" fill="white"/>
    <path d="M129.965 17.7272L124.626 32.9999H119.853L114.514 17.7272H118.988L122.16 28.6547H122.319L125.481 17.7272H129.965Z" fill="white"/>
    <path d="M136.921 33.2982C135.35 33.2982 133.998 32.98 132.864 32.3436C131.737 31.7006 130.869 30.7925 130.259 29.6192C129.649 28.4393 129.344 27.0439 129.344 25.4331C129.344 23.8621 129.649 22.4833 130.259 21.2968C130.869 20.1102 131.727 19.1855 132.834 18.5226C133.948 17.8597 135.254 17.5283 136.752 17.5283C137.76 17.5283 138.698 17.6907 139.566 18.0155C140.441 18.3337 141.203 18.8143 141.853 19.4573C142.509 20.1003 143.02 20.909 143.384 21.8834C143.749 22.8512 143.931 23.9847 143.931 25.284V26.4473H131.035V23.8223H139.944C139.944 23.2125 139.811 22.6722 139.546 22.2016C139.281 21.731 138.913 21.3631 138.442 21.0979C137.978 20.8261 137.438 20.6902 136.822 20.6902C136.179 20.6902 135.609 20.8394 135.111 21.1377C134.621 21.4293 134.236 21.8238 133.958 22.3209C133.68 22.8114 133.537 23.3583 133.531 23.9615V26.4573C133.531 27.213 133.67 27.8659 133.948 28.4161C134.233 28.9663 134.634 29.3905 135.151 29.6888C135.668 29.9871 136.281 30.1363 136.991 30.1363C137.461 30.1363 137.892 30.07 138.283 29.9374C138.674 29.8048 139.009 29.606 139.288 29.3408C139.566 29.0756 139.778 28.7508 139.924 28.3664L143.842 28.6249C143.643 29.5662 143.235 30.3881 142.619 31.0908C142.009 31.7868 141.22 32.3304 140.252 32.7215C139.291 33.106 138.181 33.2982 136.921 33.2982Z" fill="white"/>
  </g>
</svg>