<svg width="66" height="65" viewBox="0 0 66 65" fill="none" xmlns="http://www.w3.org/2000/svg">
<path fill-rule="evenodd" clip-rule="evenodd" d="M27.0902 20.6279C23.0082 38.6479 23.4272 38.8659 22.6232 40.1209C22.4872 40.3349 22.2142 40.4479 21.9662 40.3949C21.3172 40.2569 21.5352 39.9599 17.9342 29.2709C15.5762 33.1319 15.6862 33.3159 15.2042 33.3999C15.1602 33.4079 11.1522 33.4169 11.0972 33.4089C10.8052 33.3699 10.7642 32.8239 10.4722 32.7839L14.7432 32.1589C17.5902 27.4769 17.4422 27.1929 18.0642 27.1599C18.2342 27.1509 18.4042 27.2139 18.5282 27.3319C18.7222 27.5169 18.6832 27.5669 21.9842 37.4699C26.4622 17.7579 26.1192 17.1569 27.0982 17.1589C28.0772 17.1619 27.7342 17.7709 33.1152 41.9899C37.5962 22.9199 37.1692 22.6989 37.9922 21.4419C38.1542 21.1939 38.4862 21.0929 38.7592 21.2089C39.3262 21.4489 39.1232 21.6679 43.7372 36.5979C47.0272 30.0099 46.8502 29.7039 47.5022 29.6459C47.6442 29.6329 47.7882 29.6699 47.9072 29.7499C48.1572 29.9189 48.0972 29.9709 50.2142 34.1589C51.6592 32.3739 51.5832 32.2299 52.0032 32.1659C52.0422 32.1609 55.0642 32.1539 55.0972 32.1589C55.4042 32.2109 55.4842 32.7319 55.7912 32.7839C54.7892 33.3469 53.4022 32.8469 52.4002 33.4089C52.1882 33.5279 52.6122 33.8849 50.5162 35.7789C50.2622 36.0089 49.9772 35.9309 49.9312 35.9179C49.4732 35.7919 49.5922 35.6269 47.5632 31.6699C44.1632 38.5399 44.2732 38.6619 43.8642 38.8499C43.7672 38.8949 43.6602 38.9139 43.5532 38.9049C42.7642 38.8419 42.9922 38.4239 38.5972 24.1629C33.7412 44.8349 33.9852 45.1409 33.3002 45.3759C33.2332 45.3979 33.1632 45.4099 33.0932 45.4089C32.1192 45.4029 32.4592 44.7999 27.0902 20.6279Z" fill="#1570EF"/>
</svg>
