<svg width="131" height="48" viewBox="0 0 131 48" fill="none" xmlns="http://www.w3.org/2000/svg">
  <path d="M4.44946 13V30.4545H0.230713V13H4.44946Z" fill="black"/>
  <path d="M11.3167 13V30.4545H7.0979V13H11.3167Z" fill="black"/>
  <path d="M13.3941 16.4261V13H28.1469V16.4261H22.8543V30.4545H18.6952V16.4261H13.3941Z" fill="black"/>
  <path d="M35.3635 30.4545V13H42.6419C43.9488 13 45.0425 13.1847 45.9232 13.554C46.8095 13.9233 47.4743 14.4403 47.9175 15.1051C48.3664 15.7699 48.5908 16.5398 48.5908 17.4148C48.5908 18.0795 48.4516 18.6733 48.1732 19.196C47.8948 19.7131 47.5113 20.142 47.0226 20.483C46.534 20.8239 45.9686 21.0625 45.3266 21.1989V21.3693C46.0311 21.4034 46.6817 21.5938 47.2783 21.9403C47.8806 22.2869 48.3635 22.7699 48.7272 23.3892C49.0908 24.0028 49.2726 24.7301 49.2726 25.571C49.2726 26.5085 49.034 27.3466 48.5567 28.0852C48.0794 28.8182 47.3891 29.3977 46.4857 29.8239C45.5823 30.2443 44.4857 30.4545 43.1959 30.4545H35.3635ZM39.5823 27.054H42.1902C43.105 27.054 43.7783 26.8807 44.2101 26.5341C44.6476 26.1875 44.8664 25.7045 44.8664 25.0852C44.8664 24.6364 44.7613 24.25 44.551 23.9261C44.3408 23.5966 44.0425 23.3438 43.6561 23.1676C43.2698 22.9858 42.8067 22.8949 42.2669 22.8949H39.5823V27.054ZM39.5823 20.1761H41.9175C42.3777 20.1761 42.7868 20.0994 43.1448 19.946C43.5027 19.7926 43.7811 19.571 43.98 19.2812C44.1845 18.9915 44.2868 18.642 44.2868 18.233C44.2868 17.6477 44.0794 17.1875 43.6647 16.8523C43.2499 16.517 42.6902 16.3494 41.9857 16.3494H39.5823V20.1761Z" fill="black"/>
  <path d="M57.4118 30.7017C56.0368 30.7017 54.855 30.4205 53.8664 29.858C52.8834 29.2898 52.1249 28.5 51.5908 27.4886C51.0624 26.4716 50.7982 25.2926 50.7982 23.9517C50.7982 22.6051 51.0624 21.4261 51.5908 20.4148C52.1249 19.3977 52.8834 18.608 53.8664 18.0455C54.855 17.4773 56.0368 17.1932 57.4118 17.1932C58.7868 17.1932 59.9658 17.4773 60.9488 18.0455C61.9374 18.608 62.6959 19.3977 63.2243 20.4148C63.7584 21.4261 64.0255 22.6051 64.0255 23.9517C64.0255 25.2926 63.7584 26.4716 63.2243 27.4886C62.6959 28.5 61.9374 29.2898 60.9488 29.858C59.9658 30.4205 58.7868 30.7017 57.4118 30.7017ZM57.4374 27.5568C57.9374 27.5568 58.3607 27.4034 58.7073 27.0966C59.0539 26.7898 59.3181 26.3636 59.4999 25.8182C59.6874 25.2727 59.7811 24.642 59.7811 23.9261C59.7811 23.1989 59.6874 22.5625 59.4999 22.017C59.3181 21.4716 59.0539 21.0455 58.7073 20.7386C58.3607 20.4318 57.9374 20.2784 57.4374 20.2784C56.9203 20.2784 56.4828 20.4318 56.1249 20.7386C55.7726 21.0455 55.5027 21.4716 55.3152 22.017C55.1334 22.5625 55.0425 23.1989 55.0425 23.9261C55.0425 24.642 55.1334 25.2727 55.3152 25.8182C55.5027 26.3636 55.7726 26.7898 56.1249 27.0966C56.4828 27.4034 56.9203 27.5568 57.4374 27.5568Z" fill="black"/>
  <path d="M66.1604 30.4545V17.3636H70.1235V19.767H70.2684C70.5411 18.9716 71.0013 18.3438 71.649 17.8835C72.2968 17.4233 73.0695 17.1932 73.9672 17.1932C74.8763 17.1932 75.6547 17.4261 76.3024 17.892C76.9502 18.358 77.3621 18.983 77.5382 19.767H77.6746C77.9189 18.9886 78.3962 18.3665 79.1064 17.9006C79.8167 17.429 80.6547 17.1932 81.6206 17.1932C82.8593 17.1932 83.8649 17.5909 84.6377 18.3864C85.4104 19.1761 85.7968 20.2614 85.7968 21.642V30.4545H81.6292V22.5966C81.6292 21.9432 81.4615 21.446 81.1263 21.1051C80.7911 20.7585 80.3564 20.5852 79.8223 20.5852C79.2485 20.5852 78.7968 20.7727 78.4672 21.1477C78.1434 21.517 77.9814 22.0142 77.9814 22.6392V30.4545H73.9757V22.554C73.9757 21.946 73.811 21.4659 73.4814 21.1136C73.1519 20.7614 72.7172 20.5852 72.1774 20.5852C71.8138 20.5852 71.4928 20.6733 71.2144 20.8494C70.936 21.0199 70.7172 21.2642 70.5581 21.5824C70.4047 21.9006 70.328 22.2756 70.328 22.7074V30.4545H66.1604Z" fill="black"/>
  <path d="M88.3792 30.4545V13H92.5468V19.6051H92.632C92.8024 19.2074 93.0439 18.8239 93.3564 18.4545C93.6746 18.0852 94.078 17.7841 94.5667 17.5511C95.061 17.3125 95.6519 17.1932 96.3394 17.1932C97.2485 17.1932 98.0979 17.4318 98.8877 17.9091C99.6831 18.3864 100.325 19.1222 100.814 20.1165C101.302 21.1108 101.547 22.3778 101.547 23.9176C101.547 25.4006 101.311 26.642 100.839 27.642C100.373 28.642 99.7428 29.392 98.9473 29.892C98.1576 30.392 97.2797 30.642 96.3138 30.642C95.6547 30.642 95.0837 30.5341 94.6007 30.3182C94.1178 30.1023 93.7115 29.8182 93.382 29.4659C93.0581 29.1136 92.8081 28.7358 92.632 28.3324H92.5042V30.4545H88.3792ZM92.4615 23.9091C92.4615 24.6136 92.5553 25.2273 92.7428 25.75C92.936 26.2727 93.2115 26.679 93.5695 26.9688C93.9331 27.2528 94.3678 27.3949 94.8735 27.3949C95.3848 27.3949 95.8195 27.2528 96.1774 26.9688C96.5354 26.679 96.8053 26.2727 96.9871 25.75C97.1746 25.2273 97.2684 24.6136 97.2684 23.9091C97.2684 23.2045 97.1746 22.5938 96.9871 22.0767C96.8053 21.5597 96.5354 21.1591 96.1774 20.875C95.8252 20.5909 95.3905 20.4489 94.8735 20.4489C94.3621 20.4489 93.9274 20.5881 93.5695 20.8665C93.2115 21.1449 92.936 21.5426 92.7428 22.0597C92.5553 22.5767 92.4615 23.1932 92.4615 23.9091Z" fill="black"/>
  <path d="M107.421 30.6761C106.586 30.6761 105.844 30.5369 105.197 30.2585C104.555 29.9744 104.046 29.5483 103.671 28.9801C103.302 28.4062 103.117 27.6875 103.117 26.8239C103.117 26.0966 103.245 25.483 103.501 24.983C103.756 24.483 104.109 24.0767 104.557 23.7642C105.006 23.4517 105.523 23.2159 106.109 23.0568C106.694 22.892 107.319 22.7812 107.984 22.7244C108.728 22.6562 109.327 22.5852 109.782 22.5114C110.236 22.4318 110.566 22.321 110.77 22.179C110.981 22.0312 111.086 21.8239 111.086 21.5568V21.5142C111.086 21.0767 110.935 20.7386 110.634 20.5C110.333 20.2614 109.927 20.142 109.415 20.142C108.864 20.142 108.421 20.2614 108.086 20.5C107.751 20.7386 107.538 21.0682 107.447 21.4886L103.603 21.3523C103.717 20.5568 104.009 19.8466 104.481 19.2216C104.958 18.5909 105.611 18.0966 106.441 17.7386C107.276 17.375 108.279 17.1932 109.449 17.1932C110.285 17.1932 111.055 17.2926 111.759 17.4915C112.464 17.6847 113.077 17.9688 113.6 18.3438C114.123 18.7131 114.526 19.1676 114.81 19.7074C115.1 20.2472 115.245 20.8636 115.245 21.5568V30.4545H111.324V28.6307H111.222C110.989 29.0739 110.691 29.4489 110.327 29.7557C109.969 30.0625 109.546 30.2926 109.057 30.446C108.574 30.5994 108.029 30.6761 107.421 30.6761ZM108.708 27.9489C109.157 27.9489 109.56 27.858 109.918 27.6761C110.282 27.4943 110.572 27.2443 110.788 26.9261C111.003 26.6023 111.111 26.2273 111.111 25.8011V24.5568C110.992 24.6193 110.847 24.6761 110.677 24.7273C110.512 24.7784 110.33 24.8267 110.131 24.8722C109.932 24.9176 109.728 24.9574 109.518 24.9915C109.307 25.0256 109.106 25.0568 108.913 25.0852C108.52 25.1477 108.185 25.2443 107.907 25.375C107.634 25.5057 107.424 25.6761 107.276 25.8864C107.134 26.0909 107.063 26.3352 107.063 26.6193C107.063 27.0511 107.217 27.3807 107.523 27.608C107.836 27.8352 108.231 27.9489 108.708 27.9489Z" fill="black"/>
  <path d="M119.873 35.3636C119.373 35.3636 118.901 35.3239 118.458 35.2443C118.015 35.1705 117.634 35.071 117.316 34.946L118.236 31.9205C118.645 32.0568 119.015 32.1364 119.344 32.1591C119.68 32.1818 119.967 32.1278 120.205 31.9972C120.449 31.8722 120.637 31.6477 120.768 31.3239L120.93 30.9318L116.276 17.3636H120.64L123.052 26.7045H123.188L125.634 17.3636H130.023L125.089 31.7074C124.85 32.4233 124.512 33.054 124.074 33.5994C123.643 34.1506 123.083 34.5824 122.395 34.8949C121.714 35.2074 120.873 35.3636 119.873 35.3636Z" fill="black"/>
</svg>