<svg width="149" height="48" viewBox="0 0 149 48" fill="none" xmlns="http://www.w3.org/2000/svg">
  <path d="M4.21875 15V32.4545H0V15H4.21875Z" fill="black"/>
  <path d="M11.0859 15V32.4545H6.86719V15H11.0859Z" fill="black"/>
  <path d="M13.1634 18.4261V15H27.9162V18.4261H22.6236V32.4545H18.4645V18.4261H13.1634Z" fill="black"/>
  <path d="M35.1328 32.4545V15H42.343C43.6499 15 44.7777 15.2358 45.7266 15.7074C46.6811 16.1733 47.4169 16.8438 47.9339 17.7188C48.451 18.5881 48.7095 19.6193 48.7095 20.8125C48.7095 22.0227 48.4453 23.0511 47.9169 23.8977C47.3885 24.7386 46.6385 25.3807 45.6669 25.8239C44.6953 26.2614 43.5447 26.4801 42.2152 26.4801H37.6555V23.1562H41.4311C42.0675 23.1562 42.5987 23.0739 43.0249 22.9091C43.4567 22.7386 43.7834 22.483 44.005 22.142C44.2266 21.7955 44.3374 21.3523 44.3374 20.8125C44.3374 20.2727 44.2266 19.8267 44.005 19.4744C43.7834 19.1165 43.4567 18.8494 43.0249 18.6733C42.593 18.4915 42.0618 18.4006 41.4311 18.4006H39.3516V32.4545H35.1328ZM44.9595 24.4773L49.3061 32.4545H44.7038L40.4425 24.4773H44.9595Z" fill="black"/>
  <path d="M56.8764 32.7017C55.5014 32.7017 54.3196 32.4205 53.331 31.858C52.348 31.2898 51.5895 30.5 51.0554 29.4886C50.527 28.4716 50.2628 27.2926 50.2628 25.9517C50.2628 24.6051 50.527 23.4261 51.0554 22.4148C51.5895 21.3977 52.348 20.608 53.331 20.0455C54.3196 19.4773 55.5014 19.1932 56.8764 19.1932C58.2514 19.1932 59.4304 19.4773 60.4134 20.0455C61.402 20.608 62.1605 21.3977 62.6889 22.4148C63.223 23.4261 63.4901 24.6051 63.4901 25.9517C63.4901 27.2926 63.223 28.4716 62.6889 29.4886C62.1605 30.5 61.402 31.2898 60.4134 31.858C59.4304 32.4205 58.2514 32.7017 56.8764 32.7017ZM56.902 29.5568C57.402 29.5568 57.8253 29.4034 58.1719 29.0966C58.5185 28.7898 58.7827 28.3636 58.9645 27.8182C59.152 27.2727 59.2457 26.642 59.2457 25.9261C59.2457 25.1989 59.152 24.5625 58.9645 24.017C58.7827 23.4716 58.5185 23.0455 58.1719 22.7386C57.8253 22.4318 57.402 22.2784 56.902 22.2784C56.3849 22.2784 55.9474 22.4318 55.5895 22.7386C55.2372 23.0455 54.9673 23.4716 54.7798 24.017C54.598 24.5625 54.5071 25.1989 54.5071 25.9261C54.5071 26.642 54.598 27.2727 54.7798 27.8182C54.9673 28.3636 55.2372 28.7898 55.5895 29.0966C55.9474 29.4034 56.3849 29.5568 56.902 29.5568Z" fill="black"/>
  <path d="M71.7358 32.7017C70.3608 32.7017 69.179 32.4205 68.1903 31.858C67.2074 31.2898 66.4489 30.5 65.9148 29.4886C65.3864 28.4716 65.1222 27.2926 65.1222 25.9517C65.1222 24.6051 65.3864 23.4261 65.9148 22.4148C66.4489 21.3977 67.2074 20.608 68.1903 20.0455C69.179 19.4773 70.3608 19.1932 71.7358 19.1932C73.1108 19.1932 74.2898 19.4773 75.2727 20.0455C76.2614 20.608 77.0199 21.3977 77.5483 22.4148C78.0824 23.4261 78.3494 24.6051 78.3494 25.9517C78.3494 27.2926 78.0824 28.4716 77.5483 29.4886C77.0199 30.5 76.2614 31.2898 75.2727 31.858C74.2898 32.4205 73.1108 32.7017 71.7358 32.7017ZM71.7614 29.5568C72.2614 29.5568 72.6847 29.4034 73.0312 29.0966C73.3778 28.7898 73.642 28.3636 73.8239 27.8182C74.0114 27.2727 74.1051 26.642 74.1051 25.9261C74.1051 25.1989 74.0114 24.5625 73.8239 24.017C73.642 23.4716 73.3778 23.0455 73.0312 22.7386C72.6847 22.4318 72.2614 22.2784 71.7614 22.2784C71.2443 22.2784 70.8068 22.4318 70.4489 22.7386C70.0966 23.0455 69.8267 23.4716 69.6392 24.017C69.4574 24.5625 69.3665 25.1989 69.3665 25.9261C69.3665 26.642 69.4574 27.2727 69.6392 27.8182C69.8267 28.3636 70.0966 28.7898 70.4489 29.0966C70.8068 29.4034 71.2443 29.5568 71.7614 29.5568Z" fill="black"/>
  <path d="M80.4844 32.4545V19.3636H84.5327V21.75H84.669C84.9077 20.8864 85.2969 20.2443 85.8366 19.8239C86.3764 19.3977 87.0043 19.1847 87.7202 19.1847C87.9134 19.1847 88.1122 19.1989 88.3168 19.2273C88.5213 19.25 88.7117 19.2869 88.8878 19.3381V22.9602C88.6889 22.892 88.4276 22.8381 88.1037 22.7983C87.7855 22.7585 87.5014 22.7386 87.2514 22.7386C86.7571 22.7386 86.3111 22.8494 85.9134 23.071C85.5213 23.2869 85.2116 23.5909 84.9844 23.983C84.7628 24.3693 84.652 24.8239 84.652 25.3466V32.4545H80.4844Z" fill="black"/>
  <path d="M94.3445 29.0199L94.3615 24.0511H94.941L98.6229 19.3636H103.344L97.8729 26.0795H96.7734L94.3445 29.0199ZM90.5859 32.4545V15H94.7535V32.4545H90.5859ZM98.7166 32.4545L95.2905 27.017L98.0348 24.0597L103.532 32.4545H98.7166Z" fill="black"/>
  <path d="M110.416 32.7017C109.047 32.7017 107.865 32.4318 106.871 31.892C105.882 31.3466 105.121 30.571 104.587 29.5653C104.058 28.554 103.794 27.3523 103.794 25.9602C103.794 24.608 104.061 23.4261 104.595 22.4148C105.129 21.3977 105.882 20.608 106.854 20.0455C107.825 19.4773 108.97 19.1932 110.288 19.1932C111.22 19.1932 112.072 19.3381 112.845 19.6278C113.618 19.9176 114.286 20.3466 114.848 20.9148C115.411 21.483 115.848 22.1847 116.161 23.0199C116.473 23.8494 116.629 24.8011 116.629 25.875V26.9148H105.251V24.4943H112.751C112.746 24.0511 112.641 23.6563 112.436 23.3097C112.232 22.9631 111.95 22.6932 111.592 22.5C111.24 22.3011 110.834 22.2017 110.374 22.2017C109.908 22.2017 109.49 22.3068 109.121 22.517C108.751 22.7216 108.459 23.0028 108.243 23.3608C108.027 23.7131 107.913 24.1136 107.902 24.5625V27.0256C107.902 27.5597 108.007 28.0284 108.217 28.4318C108.428 28.8295 108.726 29.1392 109.112 29.3608C109.499 29.5824 109.959 29.6932 110.493 29.6932C110.862 29.6932 111.197 29.642 111.499 29.5398C111.8 29.4375 112.058 29.2869 112.274 29.0881C112.49 28.8892 112.652 28.6449 112.76 28.3551L116.587 28.4659C116.428 29.3239 116.078 30.071 115.538 30.7074C115.004 31.3381 114.303 31.8295 113.433 32.1818C112.564 32.5284 111.558 32.7017 110.416 32.7017Z" fill="black"/>
  <path d="M124.877 32.7017C123.508 32.7017 122.326 32.4318 121.332 31.892C120.343 31.3466 119.582 30.571 119.048 29.5653C118.519 28.554 118.255 27.3523 118.255 25.9602C118.255 24.608 118.522 23.4261 119.056 22.4148C119.59 21.3977 120.343 20.608 121.315 20.0455C122.286 19.4773 123.431 19.1932 124.749 19.1932C125.681 19.1932 126.533 19.3381 127.306 19.6278C128.079 19.9176 128.746 20.3466 129.309 20.9148C129.871 21.483 130.309 22.1847 130.621 23.0199C130.934 23.8494 131.09 24.8011 131.09 25.875V26.9148H119.712V24.4943H127.212C127.207 24.0511 127.102 23.6563 126.897 23.3097C126.692 22.9631 126.411 22.6932 126.053 22.5C125.701 22.3011 125.295 22.2017 124.835 22.2017C124.369 22.2017 123.951 22.3068 123.582 22.517C123.212 22.7216 122.92 23.0028 122.704 23.3608C122.488 23.7131 122.374 24.1136 122.363 24.5625V27.0256C122.363 27.5597 122.468 28.0284 122.678 28.4318C122.888 28.8295 123.187 29.1392 123.573 29.3608C123.96 29.5824 124.42 29.6932 124.954 29.6932C125.323 29.6932 125.658 29.642 125.96 29.5398C126.261 29.4375 126.519 29.2869 126.735 29.0881C126.951 28.8892 127.113 28.6449 127.221 28.3551L131.048 28.4659C130.889 29.3239 130.539 30.071 129.999 30.7074C129.465 31.3381 128.763 31.8295 127.894 32.1818C127.025 32.5284 126.019 32.7017 124.877 32.7017Z" fill="black"/>
</svg>