<svg width="143" height="48" viewBox="0 0 143 48" fill="none" xmlns="http://www.w3.org/2000/svg">
<path d="M16.6619 24.5455C16.6619 26.4659 16.2926 28.0938 15.554 29.429C14.8153 30.7642 13.8153 31.7784 12.554 32.4716C11.2983 33.1648 9.8892 33.5114 8.3267 33.5114C6.75852 33.5114 5.34659 33.1619 4.09091 32.4631C2.83523 31.7642 1.83807 30.75 1.09943 29.4205C0.366477 28.0852 0 26.4602 0 24.5455C0 22.625 0.366477 20.9972 1.09943 19.6619C1.83807 18.3267 2.83523 17.3125 4.09091 16.6193C5.34659 15.9261 6.75852 15.5795 8.3267 15.5795C9.8892 15.5795 11.2983 15.9261 12.554 16.6193C13.8153 17.3125 14.8153 18.3267 15.554 19.6619C16.2926 20.9972 16.6619 22.625 16.6619 24.5455ZM12.3494 24.5455C12.3494 23.4091 12.1875 22.4489 11.8636 21.6648C11.5455 20.8807 11.0852 20.2869 10.483 19.8835C9.88636 19.4801 9.16761 19.2784 8.3267 19.2784C7.49148 19.2784 6.77273 19.4801 6.17045 19.8835C5.56818 20.2869 5.10511 20.8807 4.78125 21.6648C4.46307 22.4489 4.30398 23.4091 4.30398 24.5455C4.30398 25.6818 4.46307 26.642 4.78125 27.4261C5.10511 28.2102 5.56818 28.804 6.17045 29.2074C6.77273 29.6108 7.49148 29.8125 8.3267 29.8125C9.16761 29.8125 9.88636 29.6108 10.483 29.2074C11.0852 28.804 11.5455 28.2102 11.8636 27.4261C12.1875 26.642 12.3494 25.6818 12.3494 24.5455Z" fill="black"/>
<path d="M22.6705 20.1818L24.8267 24.4943L27.0597 20.1818H31.2614L27.6051 26.7273L31.3977 33.2727H27.2301L24.8267 28.9261L22.483 33.2727H18.2557L22.0568 26.7273L18.4432 20.1818H22.6705Z" fill="black"/>
<path d="M40.6044 20.1818V23.25H32.1839V20.1818H40.6044ZM33.9396 33.2727V19.517C33.9396 18.5057 34.13 17.6676 34.5107 17.0028C34.8913 16.3324 35.4197 15.8324 36.0959 15.5028C36.772 15.1676 37.5533 15 38.4396 15C39.0192 15 39.5646 15.0455 40.076 15.1364C40.593 15.2216 40.9766 15.2983 41.2266 15.3665L40.5618 18.4176C40.4084 18.3665 40.2209 18.3239 39.9993 18.2898C39.7834 18.2557 39.5788 18.2386 39.3857 18.2386C38.897 18.2386 38.5618 18.3466 38.38 18.5625C38.1982 18.7784 38.1072 19.0739 38.1072 19.4489V33.2727H33.9396Z" fill="black"/>
<path d="M48.2983 33.5199C46.9233 33.5199 45.7415 33.2386 44.7528 32.6761C43.7699 32.108 43.0114 31.3182 42.4773 30.3068C41.9489 29.2898 41.6847 28.1108 41.6847 26.7699C41.6847 25.4233 41.9489 24.2443 42.4773 23.233C43.0114 22.2159 43.7699 21.4261 44.7528 20.8636C45.7415 20.2955 46.9233 20.0114 48.2983 20.0114C49.6733 20.0114 50.8523 20.2955 51.8352 20.8636C52.8239 21.4261 53.5824 22.2159 54.1108 23.233C54.6449 24.2443 54.9119 25.4233 54.9119 26.7699C54.9119 28.1108 54.6449 29.2898 54.1108 30.3068C53.5824 31.3182 52.8239 32.108 51.8352 32.6761C50.8523 33.2386 49.6733 33.5199 48.2983 33.5199ZM48.3239 30.375C48.8239 30.375 49.2472 30.2216 49.5938 29.9148C49.9403 29.608 50.2045 29.1818 50.3864 28.6364C50.5739 28.0909 50.6676 27.4602 50.6676 26.7443C50.6676 26.017 50.5739 25.3807 50.3864 24.8352C50.2045 24.2898 49.9403 23.8636 49.5938 23.5568C49.2472 23.25 48.8239 23.0966 48.3239 23.0966C47.8068 23.0966 47.3693 23.25 47.0114 23.5568C46.6591 23.8636 46.3892 24.2898 46.2017 24.8352C46.0199 25.3807 45.929 26.017 45.929 26.7443C45.929 27.4602 46.0199 28.0909 46.2017 28.6364C46.3892 29.1818 46.6591 29.608 47.0114 29.9148C47.3693 30.2216 47.8068 30.375 48.3239 30.375Z" fill="black"/>
<path d="M57.0469 33.2727V20.1818H61.0952V22.5682H61.2315C61.4702 21.7045 61.8594 21.0625 62.3991 20.642C62.9389 20.2159 63.5668 20.0028 64.2827 20.0028C64.4759 20.0028 64.6747 20.017 64.8793 20.0455C65.0838 20.0682 65.2742 20.1051 65.4503 20.1563V23.7784C65.2514 23.7102 64.9901 23.6562 64.6662 23.6165C64.348 23.5767 64.0639 23.5568 63.8139 23.5568C63.3196 23.5568 62.8736 23.6676 62.4759 23.8892C62.0838 24.1051 61.7741 24.4091 61.5469 24.8011C61.3253 25.1875 61.2145 25.642 61.2145 26.1648V33.2727H57.0469Z" fill="black"/>
<path d="M71.25 33.4602C70.2841 33.4602 69.4062 33.2102 68.6165 32.7102C67.8267 32.2102 67.196 31.4602 66.7244 30.4602C66.2528 29.4602 66.017 28.2188 66.017 26.7358C66.017 25.196 66.2614 23.929 66.75 22.9347C67.2386 21.9403 67.8778 21.2045 68.6676 20.7273C69.4631 20.25 70.3182 20.0114 71.233 20.0114C71.9205 20.0114 72.5085 20.1307 72.9972 20.3693C73.4858 20.6023 73.8892 20.9034 74.2074 21.2727C74.5256 21.642 74.767 22.0256 74.9318 22.4233H75.017V15.8182H79.1847V33.2727H75.0597V31.1506H74.9318C74.7557 31.554 74.5057 31.9318 74.1818 32.2841C73.858 32.6364 73.4517 32.9205 72.9631 33.1364C72.4801 33.3523 71.9091 33.4602 71.25 33.4602ZM72.6989 30.2131C73.2045 30.2131 73.6364 30.071 73.9943 29.7869C74.3523 29.4972 74.6278 29.0909 74.821 28.5682C75.0142 28.0455 75.1108 27.4318 75.1108 26.7273C75.1108 26.0114 75.0142 25.3949 74.821 24.8778C74.6335 24.3608 74.358 23.9631 73.9943 23.6847C73.6364 23.4062 73.2045 23.267 72.6989 23.267C72.1818 23.267 71.7443 23.4091 71.3864 23.6932C71.0284 23.9773 70.7557 24.3778 70.5682 24.8949C70.3864 25.4119 70.2955 26.0227 70.2955 26.7273C70.2955 27.4318 70.3892 28.0455 70.5767 28.5682C70.7642 29.0909 71.0341 29.4972 71.3864 29.7869C71.7443 30.071 72.1818 30.2131 72.6989 30.2131Z" fill="black"/>
</svg>
