<svg width="131" height="48" viewBox="0 0 131 48" fill="none" xmlns="http://www.w3.org/2000/svg">
<path d="M4.44922 13V30.4545H0.230469V13H4.44922Z" fill="black"/>
<path d="M11.3164 13V30.4545H7.09766V13H11.3164Z" fill="black"/>
<path d="M13.3938 16.4261V13H28.1467V16.4261H22.854V30.4545H18.695V16.4261H13.3938Z" fill="black"/>
<path d="M35.3633 30.4545V13H42.6417C43.9485 13 45.0423 13.1847 45.9229 13.554C46.8093 13.9233 47.4741 14.4403 47.9173 15.1051C48.3661 15.7699 48.5906 16.5398 48.5906 17.4148C48.5906 18.0795 48.4513 18.6733 48.1729 19.196C47.8945 19.7131 47.511 20.142 47.0224 20.483C46.5337 20.8239 45.9684 21.0625 45.3264 21.1989V21.3693C46.0309 21.4034 46.6815 21.5938 47.2781 21.9403C47.8803 22.2869 48.3633 22.7699 48.7269 23.3892C49.0906 24.0028 49.2724 24.7301 49.2724 25.571C49.2724 26.5085 49.0337 27.3466 48.5565 28.0852C48.0792 28.8182 47.3888 29.3977 46.4854 29.8239C45.582 30.2443 44.4854 30.4545 43.1957 30.4545H35.3633ZM39.582 27.054H42.19C43.1048 27.054 43.7781 26.8807 44.2099 26.5341C44.6474 26.1875 44.8661 25.7045 44.8661 25.0852C44.8661 24.6364 44.761 24.25 44.5508 23.9261C44.3406 23.5966 44.0423 23.3438 43.6559 23.1676C43.2695 22.9858 42.8065 22.8949 42.2667 22.8949H39.582V27.054ZM39.582 20.1761H41.9173C42.3775 20.1761 42.7866 20.0994 43.1445 19.946C43.5025 19.7926 43.7809 19.571 43.9798 19.2812C44.1843 18.9915 44.2866 18.642 44.2866 18.233C44.2866 17.6477 44.0792 17.1875 43.6644 16.8523C43.2496 16.517 42.69 16.3494 41.9854 16.3494H39.582V20.1761Z" fill="black"/>
<path d="M57.4116 30.7017C56.0366 30.7017 54.8548 30.4205 53.8661 29.858C52.8832 29.2898 52.1246 28.5 51.5906 27.4886C51.0621 26.4716 50.7979 25.2926 50.7979 23.9517C50.7979 22.6051 51.0621 21.4261 51.5906 20.4148C52.1246 19.3977 52.8832 18.608 53.8661 18.0455C54.8548 17.4773 56.0366 17.1932 57.4116 17.1932C58.7866 17.1932 59.9656 17.4773 60.9485 18.0455C61.9371 18.608 62.6957 19.3977 63.2241 20.4148C63.7582 21.4261 64.0252 22.6051 64.0252 23.9517C64.0252 25.2926 63.7582 26.4716 63.2241 27.4886C62.6957 28.5 61.9371 29.2898 60.9485 29.858C59.9656 30.4205 58.7866 30.7017 57.4116 30.7017ZM57.4371 27.5568C57.9371 27.5568 58.3604 27.4034 58.707 27.0966C59.0536 26.7898 59.3178 26.3636 59.4996 25.8182C59.6871 25.2727 59.7809 24.642 59.7809 23.9261C59.7809 23.1989 59.6871 22.5625 59.4996 22.017C59.3178 21.4716 59.0536 21.0455 58.707 20.7386C58.3604 20.4318 57.9371 20.2784 57.4371 20.2784C56.9201 20.2784 56.4826 20.4318 56.1246 20.7386C55.7724 21.0455 55.5025 21.4716 55.315 22.017C55.1332 22.5625 55.0423 23.1989 55.0423 23.9261C55.0423 24.642 55.1332 25.2727 55.315 25.8182C55.5025 26.3636 55.7724 26.7898 56.1246 27.0966C56.4826 27.4034 56.9201 27.5568 57.4371 27.5568Z" fill="black"/>
<path d="M66.1602 30.4545V17.3636H70.1232V19.767H70.2681C70.5408 18.9716 71.0011 18.3438 71.6488 17.8835C72.2965 17.4233 73.0692 17.1932 73.967 17.1932C74.8761 17.1932 75.6545 17.4261 76.3022 17.892C76.9499 18.358 77.3619 18.983 77.538 19.767H77.6744C77.9187 18.9886 78.396 18.3665 79.1062 17.9006C79.8164 17.429 80.6545 17.1932 81.6204 17.1932C82.859 17.1932 83.8647 17.5909 84.6374 18.3864C85.4102 19.1761 85.7965 20.2614 85.7965 21.642V30.4545H81.6289V22.5966C81.6289 21.9432 81.4613 21.446 81.1261 21.1051C80.7908 20.7585 80.3562 20.5852 79.8221 20.5852C79.2482 20.5852 78.7965 20.7727 78.467 21.1477C78.1431 21.517 77.9812 22.0142 77.9812 22.6392V30.4545H73.9755V22.554C73.9755 21.946 73.8107 21.4659 73.4812 21.1136C73.1516 20.7614 72.717 20.5852 72.1772 20.5852C71.8136 20.5852 71.4925 20.6733 71.2141 20.8494C70.9357 21.0199 70.717 21.2642 70.5579 21.5824C70.4045 21.9006 70.3278 22.2756 70.3278 22.7074V30.4545H66.1602Z" fill="black"/>
<path d="M88.3789 30.4545V13H92.5465V19.6051H92.6317C92.8022 19.2074 93.0437 18.8239 93.3562 18.4545C93.6744 18.0852 94.0778 17.7841 94.5664 17.5511C95.0607 17.3125 95.6516 17.1932 96.3391 17.1932C97.2482 17.1932 98.0977 17.4318 98.8874 17.9091C99.6829 18.3864 100.325 19.1222 100.814 20.1165C101.302 21.1108 101.547 22.3778 101.547 23.9176C101.547 25.4006 101.311 26.642 100.839 27.642C100.373 28.642 99.7425 29.392 98.9471 29.892C98.1573 30.392 97.2795 30.642 96.3136 30.642C95.6545 30.642 95.0835 30.5341 94.6005 30.3182C94.1175 30.1023 93.7113 29.8182 93.3817 29.4659C93.0579 29.1136 92.8079 28.7358 92.6317 28.3324H92.5039V30.4545H88.3789ZM92.4613 23.9091C92.4613 24.6136 92.555 25.2273 92.7425 25.75C92.9357 26.2727 93.2113 26.679 93.5692 26.9688C93.9329 27.2528 94.3675 27.3949 94.8732 27.3949C95.3846 27.3949 95.8192 27.2528 96.1772 26.9688C96.5352 26.679 96.805 26.2727 96.9869 25.75C97.1744 25.2273 97.2681 24.6136 97.2681 23.9091C97.2681 23.2045 97.1744 22.5938 96.9869 22.0767C96.805 21.5597 96.5352 21.1591 96.1772 20.875C95.8249 20.5909 95.3903 20.4489 94.8732 20.4489C94.3619 20.4489 93.9272 20.5881 93.5692 20.8665C93.2113 21.1449 92.9357 21.5426 92.7425 22.0597C92.555 22.5767 92.4613 23.1932 92.4613 23.9091Z" fill="black"/>
<path d="M107.421 30.6761C106.586 30.6761 105.844 30.5369 105.196 30.2585C104.554 29.9744 104.046 29.5483 103.671 28.9801C103.301 28.4062 103.117 27.6875 103.117 26.8239C103.117 26.0966 103.245 25.483 103.5 24.983C103.756 24.483 104.108 24.0767 104.557 23.7642C105.006 23.4517 105.523 23.2159 106.108 23.0568C106.694 22.892 107.319 22.7812 107.983 22.7244C108.728 22.6562 109.327 22.5852 109.782 22.5114C110.236 22.4318 110.566 22.321 110.77 22.179C110.98 22.0312 111.086 21.8239 111.086 21.5568V21.5142C111.086 21.0767 110.935 20.7386 110.634 20.5C110.333 20.2614 109.926 20.142 109.415 20.142C108.864 20.142 108.421 20.2614 108.086 20.5C107.75 20.7386 107.537 21.0682 107.446 21.4886L103.603 21.3523C103.716 20.5568 104.009 19.8466 104.48 19.2216C104.958 18.5909 105.611 18.0966 106.441 17.7386C107.276 17.375 108.279 17.1932 109.449 17.1932C110.284 17.1932 111.054 17.2926 111.759 17.4915C112.463 17.6847 113.077 17.9688 113.6 18.3438C114.123 18.7131 114.526 19.1676 114.81 19.7074C115.1 20.2472 115.245 20.8636 115.245 21.5568V30.4545H111.324V28.6307H111.222C110.989 29.0739 110.691 29.4489 110.327 29.7557C109.969 30.0625 109.546 30.2926 109.057 30.446C108.574 30.5994 108.029 30.6761 107.421 30.6761ZM108.708 27.9489C109.157 27.9489 109.56 27.858 109.918 27.6761C110.282 27.4943 110.571 27.2443 110.787 26.9261C111.003 26.6023 111.111 26.2273 111.111 25.8011V24.5568C110.992 24.6193 110.847 24.6761 110.676 24.7273C110.512 24.7784 110.33 24.8267 110.131 24.8722C109.932 24.9176 109.728 24.9574 109.517 24.9915C109.307 25.0256 109.105 25.0568 108.912 25.0852C108.52 25.1477 108.185 25.2443 107.907 25.375C107.634 25.5057 107.424 25.6761 107.276 25.8864C107.134 26.0909 107.063 26.3352 107.063 26.6193C107.063 27.0511 107.216 27.3807 107.523 27.608C107.836 27.8352 108.23 27.9489 108.708 27.9489Z" fill="black"/>
<path d="M119.873 35.3636C119.373 35.3636 118.901 35.3239 118.458 35.2443C118.015 35.1705 117.634 35.071 117.316 34.946L118.236 31.9205C118.645 32.0568 119.015 32.1364 119.344 32.1591C119.679 32.1818 119.966 32.1278 120.205 31.9972C120.449 31.8722 120.637 31.6477 120.767 31.3239L120.929 30.9318L116.276 17.3636H120.64L123.051 26.7045H123.188L125.634 17.3636H130.023L125.088 31.7074C124.85 32.4233 124.512 33.054 124.074 33.5994C123.642 34.1506 123.083 34.5824 122.395 34.8949C121.713 35.2074 120.873 35.3636 119.873 35.3636Z" fill="black"/>
</svg>
