<svg width="30" height="31" viewBox="0 0 30 31" fill="none" xmlns="http://www.w3.org/2000/svg">
<g filter="url(#filter0_d_45_365)">
<path d="M11.5 14.6667C11.5 15.9553 12.5447 17 13.8333 17H16C17.3807 17 18.5 15.8807 18.5 14.5C18.5 13.1193 17.3807 12 16 12H14C12.6193 12 11.5 10.8807 11.5 9.5C11.5 8.11929 12.6193 7 14 7H16.1667C17.4553 7 18.5 8.04467 18.5 9.33333M15 5.5V7M15 17V18.5M25 12C25 17.5228 20.5228 22 15 22C9.47715 22 5 17.5228 5 12C5 6.47715 9.47715 2 15 2C20.5228 2 25 6.47715 25 12Z" stroke="#1570EF" stroke-width="2" stroke-linecap="round" stroke-linejoin="round"/>
</g>
<defs>
<filter id="filter0_d_45_365" x="-1" y="0" width="32" height="32" filterUnits="userSpaceOnUse" color-interpolation-filters="sRGB">
<feFlood flood-opacity="0" result="BackgroundImageFix"/>
<feColorMatrix in="SourceAlpha" type="matrix" values="0 0 0 0 0 0 0 0 0 0 0 0 0 0 0 0 0 0 127 0" result="hardAlpha"/>
<feOffset dy="4"/>
<feGaussianBlur stdDeviation="2"/>
<feComposite in2="hardAlpha" operator="out"/>
<feColorMatrix type="matrix" values="0 0 0 0 0 0 0 0 0 0 0 0 0 0 0 0 0 0 0.25 0"/>
<feBlend mode="normal" in2="BackgroundImageFix" result="effect1_dropShadow_45_365"/>
<feBlend mode="normal" in="SourceGraphic" in2="effect1_dropShadow_45_365" result="shape"/>
</filter>
</defs>
</svg>
