<svg width="144" height="48" viewBox="0 0 144 48" fill="none" xmlns="http://www.w3.org/2000/svg">
<g id="Logotext" opacity="0.84">
<g id="Automotive">
<path d="M5.27965 32.9996H0.666016L7.69585 12.636H13.2441L20.264 32.9996H15.6504L10.5495 17.2894H10.3904L5.27965 32.9996ZM4.9913 24.9954H15.889V28.3562H4.9913V24.9954Z" fill="white"/>
<path d="M30.7495 26.4968V17.7269H34.9853V32.9996H30.9185V30.2255H30.7595C30.4148 31.1204 29.8414 31.8396 29.0393 32.3832C28.2438 32.9267 27.2727 33.1985 26.1259 33.1985C25.1051 33.1985 24.2069 32.9665 23.4313 32.5025C22.6558 32.0385 22.0492 31.3789 21.6117 30.5238C21.1809 29.6687 20.9621 28.6445 20.9555 27.4514V17.7269H25.1913V26.6957C25.1979 27.5972 25.4399 28.3098 25.9171 28.8335C26.3944 29.3571 27.0341 29.619 27.8362 29.619C28.3466 29.619 28.8238 29.503 29.268 29.271C29.7121 29.0323 30.0701 28.681 30.3418 28.217C30.6202 27.753 30.7561 27.1796 30.7495 26.4968Z" fill="white"/>
<path d="M44.817 17.7269V20.9087H35.6196V17.7269H44.817ZM37.7076 14.0678H41.9434V28.3065C41.9434 28.6976 42.0031 29.0025 42.1224 29.2212C42.2417 29.4334 42.4075 29.5825 42.6196 29.6687C42.8383 29.7549 43.0902 29.7979 43.3753 29.7979C43.5741 29.7979 43.773 29.7814 43.9719 29.7482C44.1707 29.7085 44.3232 29.6786 44.4292 29.6587L45.0954 32.8107C44.8833 32.877 44.585 32.9532 44.2005 33.0394C43.8161 33.1322 43.3487 33.1886 42.7986 33.2085C41.7777 33.2482 40.8828 33.1123 40.1139 32.8008C39.3516 32.4892 38.7583 32.0053 38.3341 31.3491C37.9098 30.6928 37.701 29.8642 37.7076 28.8633V14.0678Z" fill="white"/>
<path d="M52.6328 33.2979C51.0883 33.2979 49.7526 32.9698 48.6257 32.3136C47.5054 31.6507 46.6403 30.7293 46.0305 29.5494C45.4206 28.3628 45.1157 26.9873 45.1157 25.4229C45.1157 23.8453 45.4206 22.4665 46.0305 21.2866C46.6403 20.1 47.5054 19.1786 48.6257 18.5224C49.7526 17.8595 51.0883 17.5281 52.6328 17.5281C54.1773 17.5281 55.5097 17.8595 56.6299 18.5224C57.7568 19.1786 58.6252 20.1 59.235 21.2866C59.8449 22.4665 60.1498 23.8453 60.1498 25.4229C60.1498 26.9873 59.8449 28.3628 59.235 29.5494C58.6252 30.7293 57.7568 31.6507 56.6299 32.3136C55.5097 32.9698 54.1773 33.2979 52.6328 33.2979ZM52.6526 30.0167C53.3553 30.0167 53.9419 29.8178 54.4126 29.4201C54.8832 29.0157 55.2379 28.4656 55.4765 27.7695C55.7218 27.0735 55.8444 26.2814 55.8444 25.3931C55.8444 24.5049 55.7218 23.7127 55.4765 23.0167C55.2379 22.3207 54.8832 21.7705 54.4126 21.3661C53.9419 20.9618 53.3553 20.7596 52.6526 20.7596C51.9434 20.7596 51.3468 20.9618 50.8629 21.3661C50.3856 21.7705 50.0243 22.3207 49.7791 23.0167C49.5404 23.7127 49.4211 24.5049 49.4211 25.3931C49.4211 26.2814 49.5404 27.0735 49.7791 27.7695C50.0243 28.4656 50.3856 29.0157 50.8629 29.4201C51.3468 29.8178 51.9434 30.0167 52.6526 30.0167Z" fill="white"/>
<path d="M61.2241 32.9996V17.7269H65.261V20.4215H65.44C65.7582 19.5266 66.2885 18.8207 67.0309 18.3036C67.7733 17.7866 68.6616 17.5281 69.6957 17.5281C70.743 17.5281 71.6346 17.7899 72.3704 18.3136C73.1062 18.8306 73.5967 19.5333 73.842 20.4215H74.0011C74.3126 19.5465 74.8761 18.8472 75.6914 18.3235C76.5134 17.7932 77.4845 17.5281 78.6048 17.5281C80.0299 17.5281 81.1867 17.9821 82.0749 18.8903C82.9698 19.7918 83.4173 21.0711 83.4173 22.7283V32.9996H79.1914V23.5636C79.1914 22.7151 78.966 22.0787 78.5153 21.6545C78.0645 21.2302 77.5011 21.0181 76.8249 21.0181C76.056 21.0181 75.4561 21.2634 75.0252 21.7539C74.5943 22.2378 74.3789 22.8775 74.3789 23.6729V32.9996H70.2724V23.4741C70.2724 22.725 70.0569 22.1284 69.6261 21.6843C69.2018 21.2402 68.6417 21.0181 67.9457 21.0181C67.475 21.0181 67.0508 21.1374 66.6729 21.3761C66.3017 21.6081 66.0067 21.9362 65.788 22.3604C65.5692 22.7781 65.4599 23.2686 65.4599 23.832V32.9996H61.2241Z" fill="white"/>
<path d="M91.9837 33.2979C90.4392 33.2979 89.1035 32.9698 87.9766 32.3136C86.8563 31.6507 85.9913 30.7293 85.3814 29.5494C84.7716 28.3628 84.4667 26.9873 84.4667 25.4229C84.4667 23.8453 84.7716 22.4665 85.3814 21.2866C85.9913 20.1 86.8563 19.1786 87.9766 18.5224C89.1035 17.8595 90.4392 17.5281 91.9837 17.5281C93.5282 17.5281 94.8606 17.8595 95.9809 18.5224C97.1077 19.1786 97.9761 20.1 98.586 21.2866C99.1958 22.4665 99.5007 23.8453 99.5007 25.4229C99.5007 26.9873 99.1958 28.3628 98.586 29.5494C97.9761 30.7293 97.1077 31.6507 95.9809 32.3136C94.8606 32.9698 93.5282 33.2979 91.9837 33.2979ZM92.0036 30.0167C92.7062 30.0167 93.2929 29.8178 93.7635 29.4201C94.2342 29.0157 94.5888 28.4656 94.8274 27.7695C95.0727 27.0735 95.1954 26.2814 95.1954 25.3931C95.1954 24.5049 95.0727 23.7127 94.8274 23.0167C94.5888 22.3207 94.2342 21.7705 93.7635 21.3661C93.2929 20.9618 92.7062 20.7596 92.0036 20.7596C91.2943 20.7596 90.6977 20.9618 90.2138 21.3661C89.7365 21.7705 89.3753 22.3207 89.13 23.0167C88.8914 23.7127 88.772 24.5049 88.772 25.3931C88.772 26.2814 88.8914 27.0735 89.13 27.7695C89.3753 28.4656 89.7365 29.0157 90.2138 29.4201C90.6977 29.8178 91.2943 30.0167 92.0036 30.0167Z" fill="white"/>
<path d="M108.699 17.7269V20.9087H99.5011V17.7269H108.699ZM101.589 14.0678H105.825V28.3065C105.825 28.6976 105.885 29.0025 106.004 29.2212C106.123 29.4334 106.289 29.5825 106.501 29.6687C106.72 29.7549 106.972 29.7979 107.257 29.7979C107.456 29.7979 107.655 29.7814 107.853 29.7482C108.052 29.7085 108.205 29.6786 108.311 29.6587L108.977 32.8107C108.765 32.877 108.467 32.9532 108.082 33.0394C107.698 33.1322 107.23 33.1886 106.68 33.2085C105.659 33.2482 104.764 33.1123 103.995 32.8008C103.233 32.4892 102.64 32.0053 102.216 31.3491C101.791 30.6928 101.583 29.8642 101.589 28.8633V14.0678Z" fill="white"/>
<path d="M109.778 32.9996V17.7269H114.014V32.9996H109.778ZM111.906 15.7582C111.276 15.7582 110.736 15.5494 110.285 15.1317C109.841 14.7075 109.619 14.2004 109.619 13.6104C109.619 13.0271 109.841 12.5266 110.285 12.109C110.736 11.6848 111.276 11.4727 111.906 11.4727C112.535 11.4727 113.072 11.6848 113.516 12.109C113.967 12.5266 114.193 13.0271 114.193 13.6104C114.193 14.2004 113.967 14.7075 113.516 15.1317C113.072 15.5494 112.535 15.7582 111.906 15.7582Z" fill="white"/>
<path d="M129.965 17.7269L124.626 32.9996H119.853L114.514 17.7269H118.988L122.16 28.6545H122.319L125.481 17.7269H129.965Z" fill="white"/>
<path d="M136.921 33.2979C135.35 33.2979 133.998 32.9798 132.864 32.3434C131.737 31.7004 130.869 30.7923 130.259 29.619C129.649 28.439 129.344 27.0437 129.344 25.4329C129.344 23.8619 129.649 22.4831 130.259 21.2965C130.869 20.11 131.727 19.1853 132.834 18.5224C133.948 17.8595 135.254 17.5281 136.752 17.5281C137.76 17.5281 138.698 17.6905 139.566 18.0153C140.441 18.3335 141.203 18.814 141.853 19.457C142.509 20.1 143.02 20.9087 143.384 21.8832C143.749 22.851 143.931 23.9845 143.931 25.2837V26.4471H131.035V23.8221H139.944C139.944 23.2122 139.811 22.672 139.546 22.2014C139.281 21.7307 138.913 21.3628 138.442 21.0977C137.978 20.8259 137.438 20.69 136.822 20.69C136.179 20.69 135.609 20.8391 135.111 21.1374C134.621 21.4291 134.236 21.8235 133.958 22.3207C133.68 22.8112 133.537 23.3581 133.53 23.9613V26.457C133.53 27.2127 133.67 27.8656 133.948 28.4158C134.233 28.966 134.634 29.3903 135.151 29.6886C135.668 29.9869 136.281 30.136 136.991 30.136C137.461 30.136 137.892 30.0697 138.283 29.9371C138.674 29.8046 139.009 29.6057 139.287 29.3406C139.566 29.0754 139.778 28.7506 139.924 28.3661L143.841 28.6246C143.643 29.5659 143.235 30.3879 142.618 31.0906C142.009 31.7866 141.22 32.3301 140.252 32.7212C139.291 33.1057 138.18 33.2979 136.921 33.2979Z" fill="white"/>
</g>
</g>
</svg>
