<svg xmlns="http://www.w3.org/2000/svg" width="127" height="32" viewBox="0 0 127 32" fill="none">
  <path d="M2.8125 22.5455H0L5.12074 8H8.37358L13.5014 22.5455H10.6889L6.80398 10.983H6.69034L2.8125 22.5455ZM2.90483 16.8423H10.5753V18.9588H2.90483V16.8423Z" fill="black"/>
  <path d="M23.6808 11.6364L19.7958 22.5455H16.9549L13.07 11.6364H15.8114L18.3185 19.7401H18.4322L20.9464 11.6364H23.6808Z" fill="black"/>
  <path d="M27.8036 19.1222L27.7965 16.0185H28.2085L32.1289 11.6364H35.1332L30.3107 17.0057H29.7781L27.8036 19.1222ZM25.4599 22.5455V8H28.0309V22.5455H25.4599ZM32.3065 22.5455L28.7553 17.581L30.4883 15.7699L35.3817 22.5455H32.3065Z" fill="black"/>
  <path d="M39.9858 22.7656C39.2945 22.7656 38.6719 22.6425 38.1179 22.3963C37.5687 22.1454 37.133 21.776 36.8111 21.2884C36.4938 20.8007 36.3352 20.1993 36.3352 19.4844C36.3352 18.8688 36.4489 18.3598 36.6761 17.9574C36.9034 17.5549 37.2135 17.233 37.6065 16.9915C37.9995 16.75 38.4422 16.5677 38.9347 16.4446C39.4318 16.3168 39.9455 16.2244 40.4759 16.1676C41.1151 16.1013 41.6335 16.0421 42.0312 15.9901C42.429 15.9332 42.7178 15.848 42.8977 15.7344C43.0824 15.616 43.1747 15.4337 43.1747 15.1875V15.1449C43.1747 14.6098 43.0161 14.1955 42.6989 13.902C42.3816 13.6084 41.9247 13.4616 41.3281 13.4616C40.6984 13.4616 40.1989 13.599 39.8295 13.8736C39.465 14.1482 39.2188 14.4725 39.0909 14.8466L36.6903 14.5057C36.8797 13.8428 37.1922 13.2888 37.6278 12.8438C38.0634 12.3939 38.5961 12.0578 39.2259 11.8352C39.8556 11.608 40.5516 11.4943 41.3139 11.4943C41.8395 11.4943 42.3627 11.5559 42.8835 11.679C43.4044 11.8021 43.8802 12.0057 44.3111 12.2898C44.742 12.5691 45.0876 12.9503 45.348 13.4332C45.6132 13.9162 45.7457 14.5199 45.7457 15.2443V22.5455H43.2741V21.0469H43.1889C43.0327 21.3499 42.8125 21.634 42.5284 21.8991C42.2491 22.1596 41.8963 22.3703 41.4702 22.5312C41.0488 22.6875 40.554 22.7656 39.9858 22.7656ZM40.6534 20.8764C41.1695 20.8764 41.617 20.7746 41.9957 20.571C42.3745 20.3627 42.6657 20.0881 42.8693 19.7472C43.0777 19.4062 43.1818 19.0346 43.1818 18.6321V17.3466C43.1013 17.4129 42.964 17.4744 42.7699 17.5312C42.5805 17.5881 42.3674 17.6378 42.1307 17.6804C41.8939 17.723 41.6596 17.7609 41.4276 17.794C41.1955 17.8272 40.9943 17.8556 40.8239 17.8793C40.4403 17.9313 40.0971 18.0166 39.794 18.1349C39.491 18.2533 39.2519 18.419 39.0767 18.6321C38.9015 18.8404 38.8139 19.1103 38.8139 19.4418C38.8139 19.9152 38.9867 20.2727 39.3324 20.5142C39.678 20.7557 40.1184 20.8764 40.6534 20.8764Z" fill="black"/>
  <path d="M50.902 8V22.5455H48.331V8H50.902Z" fill="black"/>
  <path d="M56.685 22.7656C55.9937 22.7656 55.3711 22.6425 54.8171 22.3963C54.2679 22.1454 53.8323 21.776 53.5103 21.2884C53.1931 20.8007 53.0344 20.1993 53.0344 19.4844C53.0344 18.8688 53.1481 18.3598 53.3754 17.9574C53.6026 17.5549 53.9128 17.233 54.3058 16.9915C54.6987 16.75 55.1415 16.5677 55.6339 16.4446C56.131 16.3168 56.6448 16.2244 57.1751 16.1676C57.8143 16.1013 58.3327 16.0421 58.7305 15.9901C59.1282 15.9332 59.417 15.848 59.5969 15.7344C59.7816 15.616 59.8739 15.4337 59.8739 15.1875V15.1449C59.8739 14.6098 59.7153 14.1955 59.3981 13.902C59.0808 13.6084 58.6239 13.4616 58.0273 13.4616C57.3976 13.4616 56.8981 13.599 56.5288 13.8736C56.1642 14.1482 55.918 14.4725 55.7901 14.8466L53.3896 14.5057C53.579 13.8428 53.8915 13.2888 54.3271 12.8438C54.7627 12.3939 55.2953 12.0578 55.9251 11.8352C56.5548 11.608 57.2508 11.4943 58.0131 11.4943C58.5387 11.4943 59.0619 11.5559 59.5827 11.679C60.1036 11.8021 60.5794 12.0057 61.0103 12.2898C61.4412 12.5691 61.7868 12.9503 62.0472 13.4332C62.3124 13.9162 62.445 14.5199 62.445 15.2443V22.5455H59.9734V21.0469H59.8881C59.7319 21.3499 59.5117 21.634 59.2276 21.8991C58.9483 22.1596 58.5955 22.3703 58.1694 22.5312C57.748 22.6875 57.2532 22.7656 56.685 22.7656ZM57.3526 20.8764C57.8687 20.8764 58.3162 20.7746 58.695 20.571C59.0737 20.3627 59.3649 20.0881 59.5685 19.7472C59.7769 19.4062 59.881 19.0346 59.881 18.6321V17.3466C59.8005 17.4129 59.6632 17.4744 59.4691 17.5312C59.2797 17.5881 59.0666 17.6378 58.8299 17.6804C58.5932 17.723 58.3588 17.7609 58.1268 17.794C57.8948 17.8272 57.6935 17.8556 57.5231 17.8793C57.1396 17.9313 56.7963 18.0166 56.4933 18.1349C56.1902 18.2533 55.9511 18.419 55.7759 18.6321C55.6007 18.8404 55.5131 19.1103 55.5131 19.4418C55.5131 19.9152 55.686 20.2727 56.0316 20.5142C56.3772 20.7557 56.8176 20.8764 57.3526 20.8764Z" fill="black"/>
  <path d="M67.6012 16.1534V22.5455H65.0302V11.6364H67.4876V13.4901H67.6154C67.8664 12.8793 68.2665 12.3939 68.8157 12.0341C69.3697 11.6742 70.0539 11.4943 70.8683 11.4943C71.6211 11.4943 72.2769 11.6553 72.8356 11.9773C73.399 12.2992 73.8346 12.7656 74.1424 13.3764C74.4549 13.9872 74.6088 14.7282 74.604 15.5994V22.5455H72.033V15.9972C72.033 15.268 71.8436 14.6974 71.4648 14.2855C71.0908 13.8736 70.5723 13.6676 69.9094 13.6676C69.4596 13.6676 69.0595 13.767 68.7092 13.9659C68.3635 14.16 68.0913 14.4418 67.8924 14.8111C67.6983 15.1804 67.6012 15.6278 67.6012 16.1534Z" fill="black"/>
  <path d="M82.2923 22.5455V8H84.9272V20.3366H91.3335V22.5455H82.2923Z" fill="black"/>
  <path d="M96.646 22.7656C95.9547 22.7656 95.332 22.6425 94.7781 22.3963C94.2288 22.1454 93.7932 21.776 93.4712 21.2884C93.154 20.8007 92.9954 20.1993 92.9954 19.4844C92.9954 18.8688 93.109 18.3598 93.3363 17.9574C93.5636 17.5549 93.8737 17.233 94.2667 16.9915C94.6597 16.75 95.1024 16.5677 95.5948 16.4446C96.092 16.3168 96.6057 16.2244 97.136 16.1676C97.7752 16.1013 98.2937 16.0421 98.6914 15.9901C99.0891 15.9332 99.378 15.848 99.5579 15.7344C99.7425 15.616 99.8349 15.4337 99.8349 15.1875V15.1449C99.8349 14.6098 99.6763 14.1955 99.359 13.902C99.0418 13.6084 98.5849 13.4616 97.9883 13.4616C97.3585 13.4616 96.859 13.599 96.4897 13.8736C96.1251 14.1482 95.8789 14.4725 95.7511 14.8466L93.3505 14.5057C93.5399 13.8428 93.8524 13.2888 94.288 12.8438C94.7236 12.3939 95.2563 12.0578 95.886 11.8352C96.5157 11.608 97.2118 11.4943 97.9741 11.4943C98.4996 11.4943 99.0228 11.5559 99.5437 11.679C100.065 11.8021 100.54 12.0057 100.971 12.2898C101.402 12.5691 101.748 12.9503 102.008 13.4332C102.273 13.9162 102.406 14.5199 102.406 15.2443V22.5455H99.9343V21.0469H99.8491C99.6928 21.3499 99.4727 21.634 99.1886 21.8991C98.9092 22.1596 98.5565 22.3703 98.1303 22.5312C97.7089 22.6875 97.2141 22.7656 96.646 22.7656ZM97.3136 20.8764C97.8297 20.8764 98.2771 20.7746 98.6559 20.571C99.0347 20.3627 99.3259 20.0881 99.5295 19.7472C99.7378 19.4062 99.842 19.0346 99.842 18.6321V17.3466C99.7615 17.4129 99.6242 17.4744 99.43 17.5312C99.2407 17.5881 99.0276 17.6378 98.7908 17.6804C98.5541 17.723 98.3197 17.7609 98.0877 17.794C97.8557 17.8272 97.6545 17.8556 97.484 17.8793C97.1005 17.9313 96.7572 18.0166 96.4542 18.1349C96.1512 18.2533 95.912 18.419 95.7369 18.6321C95.5617 18.8404 95.4741 19.1103 95.4741 19.4418C95.4741 19.9152 95.6469 20.2727 95.9925 20.5142C96.3382 20.7557 96.7785 20.8764 97.3136 20.8764Z" fill="black"/>
  <path d="M105.105 22.5455V8H107.676V13.4403H107.782C107.915 13.1752 108.102 12.8935 108.343 12.5952C108.585 12.2921 108.912 12.0341 109.324 11.821C109.735 11.6032 110.261 11.4943 110.9 11.4943C111.743 11.4943 112.503 11.7098 113.18 12.1406C113.862 12.5668 114.402 13.1989 114.799 14.0369C115.202 14.8703 115.403 15.893 115.403 17.1051C115.403 18.303 115.207 19.321 114.814 20.1591C114.421 20.9972 113.886 21.6364 113.208 22.0767C112.531 22.517 111.764 22.7372 110.907 22.7372C110.282 22.7372 109.764 22.633 109.352 22.4247C108.94 22.2164 108.609 21.9654 108.358 21.6719C108.111 21.3736 107.92 21.0919 107.782 20.8267H107.633V22.5455H105.105ZM107.626 17.0909C107.626 17.7964 107.726 18.4143 107.924 18.9446C108.128 19.4749 108.419 19.8892 108.798 20.1875C109.181 20.4811 109.645 20.6278 110.19 20.6278C110.758 20.6278 111.234 20.4763 111.618 20.1733C112.001 19.8655 112.29 19.4465 112.484 18.9162C112.683 18.3812 112.782 17.7727 112.782 17.0909C112.782 16.4138 112.685 15.8125 112.491 15.2869C112.297 14.7614 112.008 14.3494 111.625 14.0511C111.241 13.7528 110.763 13.6037 110.19 13.6037C109.641 13.6037 109.174 13.7481 108.791 14.0369C108.407 14.3258 108.116 14.7306 107.917 15.2514C107.723 15.7723 107.626 16.3854 107.626 17.0909Z" fill="black"/>
  <path d="M126.211 14.5199L123.867 14.7756C123.801 14.5388 123.685 14.3163 123.519 14.108C123.358 13.8996 123.14 13.7315 122.866 13.6037C122.591 13.4759 122.255 13.4119 121.857 13.4119C121.322 13.4119 120.872 13.5279 120.508 13.7599C120.148 13.992 119.97 14.2926 119.975 14.6619C119.97 14.9792 120.086 15.2372 120.323 15.4361C120.565 15.6349 120.962 15.7983 121.516 15.9261L123.377 16.3239C124.409 16.5464 125.176 16.8991 125.678 17.3821C126.185 17.8651 126.441 18.4972 126.445 19.2784C126.441 19.965 126.239 20.571 125.842 21.0966C125.449 21.6174 124.902 22.0246 124.201 22.3182C123.5 22.6117 122.695 22.7585 121.786 22.7585C120.451 22.7585 119.376 22.4792 118.562 21.9205C117.747 21.357 117.262 20.5734 117.106 19.5696L119.613 19.3281C119.727 19.8205 119.968 20.1922 120.337 20.4432C120.707 20.6941 121.187 20.8196 121.779 20.8196C122.39 20.8196 122.88 20.6941 123.249 20.4432C123.623 20.1922 123.81 19.8821 123.81 19.5128C123.81 19.2003 123.69 18.9422 123.448 18.7386C123.211 18.535 122.842 18.3788 122.34 18.2699L120.479 17.8793C119.433 17.6615 118.659 17.2945 118.157 16.7784C117.655 16.2576 117.406 15.5994 117.411 14.804C117.406 14.1316 117.589 13.5492 117.958 13.0568C118.332 12.5597 118.851 12.1761 119.513 11.9062C120.181 11.6316 120.951 11.4943 121.822 11.4943C123.1 11.4943 124.106 11.7666 124.84 12.3111C125.579 12.8556 126.036 13.5919 126.211 14.5199Z" fill="black"/>
</svg>