<svg width="115" height="48" viewBox="0 0 115 48" fill="none" xmlns="http://www.w3.org/2000/svg">
<g id="Logotext" opacity="0.84">
<g id="Biotech">
<path d="M0.77002 32.9996V12.636H8.92343C10.4215 12.636 11.6711 12.8581 12.672 13.3022C13.673 13.7463 14.4253 14.3628 14.9291 15.1516C15.4329 15.9338 15.6848 16.8353 15.6848 17.8562C15.6848 18.6516 15.5257 19.351 15.2075 19.9542C14.8893 20.5508 14.4518 21.0413 13.895 21.4258C13.3448 21.8036 12.7151 22.0721 12.0058 22.2312V22.43C12.7814 22.4632 13.5072 22.6819 14.1834 23.0863C14.8661 23.4906 15.4196 24.0574 15.8439 24.7866C16.2681 25.5091 16.4802 26.3709 16.4802 27.3718C16.4802 28.4523 16.2118 29.4168 15.6748 30.2653C15.1445 31.1071 14.359 31.7733 13.3183 32.2639C12.2776 32.7544 10.9949 32.9996 9.4703 32.9996H0.77002ZM5.07542 29.4798H8.58536C9.78517 29.4798 10.6602 29.2511 11.2104 28.7937C11.7605 28.3297 12.0356 27.7132 12.0356 26.9442C12.0356 26.3808 11.8998 25.8836 11.628 25.4528C11.3562 25.0219 10.9684 24.6838 10.4646 24.4386C9.96746 24.1933 9.37419 24.0707 8.68479 24.0707H5.07542V29.4798ZM5.07542 21.1573H8.26718C8.85714 21.1573 9.38082 21.0546 9.8382 20.8491C10.3022 20.637 10.6668 20.3387 10.932 19.9542C11.2037 19.5697 11.3396 19.109 11.3396 18.5721C11.3396 17.8363 11.0778 17.243 10.5541 16.7923C10.0371 16.3415 9.30127 16.1161 8.34672 16.1161H5.07542V21.1573Z" fill="white"/>
<path d="M17.5222 32.9996V17.7269H21.758V32.9996H17.5222ZM19.65 15.7582C19.0203 15.7582 18.4801 15.5494 18.0293 15.1317C17.5852 14.7075 17.3631 14.2004 17.3631 13.6104C17.3631 13.0271 17.5852 12.5266 18.0293 12.109C18.4801 11.6848 19.0203 11.4727 19.65 11.4727C20.2798 11.4727 20.8167 11.6848 21.2608 12.109C21.7116 12.5266 21.937 13.0271 21.937 13.6104C21.937 14.2004 21.7116 14.7075 21.2608 15.1317C20.8167 15.5494 20.2798 15.7582 19.65 15.7582Z" fill="white"/>
<path d="M30.3717 33.2979C28.8272 33.2979 27.4915 32.9698 26.3646 32.3136C25.2443 31.6507 24.3792 30.7293 23.7694 29.5494C23.1595 28.3628 22.8546 26.9873 22.8546 25.4229C22.8546 23.8453 23.1595 22.4665 23.7694 21.2866C24.3792 20.1 25.2443 19.1786 26.3646 18.5224C27.4915 17.8595 28.8272 17.5281 30.3717 17.5281C31.9162 17.5281 33.2486 17.8595 34.3688 18.5224C35.4957 19.1786 36.3641 20.1 36.9739 21.2866C37.5838 22.4665 37.8887 23.8453 37.8887 25.4229C37.8887 26.9873 37.5838 28.3628 36.9739 29.5494C36.3641 30.7293 35.4957 31.6507 34.3688 32.3136C33.2486 32.9698 31.9162 33.2979 30.3717 33.2979ZM30.3916 30.0167C31.0942 30.0167 31.6809 29.8178 32.1515 29.4201C32.6221 29.0157 32.9768 28.4656 33.2154 27.7695C33.4607 27.0735 33.5833 26.2814 33.5833 25.3931C33.5833 24.5049 33.4607 23.7127 33.2154 23.0167C32.9768 22.3207 32.6221 21.7705 32.1515 21.3661C31.6809 20.9618 31.0942 20.7596 30.3916 20.7596C29.6823 20.7596 29.0857 20.9618 28.6018 21.3661C28.1245 21.7705 27.7632 22.3207 27.518 23.0167C27.2793 23.7127 27.16 24.5049 27.16 25.3931C27.16 26.2814 27.2793 27.0735 27.518 27.7695C27.7632 28.4656 28.1245 29.0157 28.6018 29.4201C29.0857 29.8178 29.6823 30.0167 30.3916 30.0167Z" fill="white"/>
<path d="M47.0866 17.7269V20.9087H37.8891V17.7269H47.0866ZM39.9772 14.0678H44.213V28.3065C44.213 28.6976 44.2726 29.0025 44.392 29.2212C44.5113 29.4334 44.677 29.5825 44.8891 29.6687C45.1079 29.7549 45.3598 29.7979 45.6448 29.7979C45.8437 29.7979 46.0425 29.7814 46.2414 29.7482C46.4402 29.7085 46.5927 29.6786 46.6988 29.6587L47.365 32.8107C47.1528 32.877 46.8545 32.9532 46.4701 33.0394C46.0856 33.1322 45.6183 33.1886 45.0681 33.2085C44.0473 33.2482 43.1524 33.1123 42.3834 32.8008C41.6211 32.4892 41.0278 32.0053 40.6036 31.3491C40.1794 30.6928 39.9705 29.8642 39.9772 28.8633V14.0678Z" fill="white"/>
<path d="M54.962 33.2979C53.3909 33.2979 52.0387 32.9798 50.9051 32.3434C49.7782 31.7004 48.9099 30.7923 48.3 29.619C47.6902 28.439 47.3852 27.0437 47.3852 25.4329C47.3852 23.8619 47.6902 22.4831 48.3 21.2965C48.9099 20.11 49.7683 19.1853 50.8753 18.5224C51.9889 17.8595 53.2948 17.5281 54.7929 17.5281C55.8005 17.5281 56.7385 17.6905 57.6068 18.0153C58.4818 18.3335 59.2441 18.814 59.8938 19.457C60.55 20.1 61.0604 20.9087 61.425 21.8832C61.7896 22.851 61.9719 23.9845 61.9719 25.2837V26.4471H49.0756V23.8221H57.9847C57.9847 23.2122 57.8521 22.672 57.587 22.2014C57.3218 21.7307 56.9539 21.3628 56.4833 21.0977C56.0192 20.8259 55.479 20.69 54.8625 20.69C54.2195 20.69 53.6494 20.8391 53.1523 21.1374C52.6618 21.4291 52.2773 21.8235 51.9989 22.3207C51.7205 22.8112 51.578 23.3581 51.5713 23.9613V26.457C51.5713 27.2127 51.7105 27.8656 51.9889 28.4158C52.274 28.966 52.675 29.3903 53.1921 29.6886C53.7091 29.9869 54.3223 30.136 55.0316 30.136C55.5022 30.136 55.9331 30.0697 56.3242 29.9371C56.7153 29.8046 57.05 29.6057 57.3284 29.3406C57.6068 29.0754 57.819 28.7506 57.9648 28.3661L61.8824 28.6246C61.6835 29.5659 61.2759 30.3879 60.6594 31.0906C60.0495 31.7866 59.2607 32.3301 58.2929 32.7212C57.3317 33.1057 56.2214 33.2979 54.962 33.2979Z" fill="white"/>
<path d="M69.9567 33.2979C68.3923 33.2979 67.0466 32.9665 65.9197 32.3036C64.7995 31.6341 63.9377 30.7061 63.3345 29.5195C62.7379 28.333 62.4396 26.9674 62.4396 25.4229C62.4396 23.8585 62.7412 22.4864 63.3444 21.3065C63.9543 20.1199 64.8194 19.1952 65.9396 18.5323C67.0599 17.8628 68.3923 17.5281 69.9368 17.5281C71.2692 17.5281 72.4358 17.77 73.4368 18.2539C74.4377 18.7378 75.2299 19.4173 75.8132 20.2923C76.3965 21.1673 76.718 22.1947 76.7777 23.3746H72.7805C72.6678 22.6123 72.3695 21.9992 71.8856 21.5352C71.4084 21.0645 70.7819 20.8292 70.0064 20.8292C69.3501 20.8292 68.7767 21.0082 68.2862 21.3661C67.8023 21.7174 67.4245 22.2312 67.1527 22.9073C66.8809 23.5835 66.745 24.4021 66.745 25.3633C66.745 26.3377 66.8776 27.1663 67.1427 27.8491C67.4145 28.5318 67.7957 29.0522 68.2862 29.4102C68.7767 29.7681 69.3501 29.9471 70.0064 29.9471C70.4903 29.9471 70.9245 29.8477 71.3089 29.6488C71.7 29.4499 72.0215 29.1616 72.2734 28.7837C72.532 28.3993 72.701 27.9386 72.7805 27.4016H76.7777C76.7114 28.5683 76.3932 29.5958 75.8231 30.484C75.2597 31.3656 74.4808 32.055 73.4865 32.5522C72.4922 33.0494 71.3156 33.2979 69.9567 33.2979Z" fill="white"/>
<path d="M82.0455 24.1701V32.9996H77.8097V12.636H81.9262V20.4215H82.1051C82.4498 19.52 83.0067 18.814 83.7756 18.3036C84.5445 17.7866 85.509 17.5281 86.6691 17.5281C87.7297 17.5281 88.6544 17.7601 89.4432 18.2241C90.2387 18.6815 90.8551 19.341 91.2926 20.2028C91.7368 21.0579 91.9555 22.082 91.9489 23.2752V32.9996H87.7131V24.0309C87.7197 23.0896 87.4811 22.3571 86.9972 21.8335C86.5199 21.3098 85.8504 21.0479 84.9887 21.0479C84.412 21.0479 83.9016 21.1706 83.4574 21.4158C83.0199 21.6611 82.6752 22.0191 82.4233 22.4897C82.1781 22.9537 82.0521 23.5139 82.0455 24.1701Z" fill="white"/>
</g>
</g>
</svg>
