<svg width="24" height="24" viewBox="0 0 24 24" fill="none" xmlns="http://www.w3.org/2000/svg">
<g id="Social icon" clip-path="url(#clip0_100_16167)">
<path id="Vector" opacity="0.2" d="M0.363845 13.6945L0.422027 4.96865C0.432209 3.38902 1.53694 2.03484 3.06203 1.73302L11.4889 0.0624719C13.5137 -0.338983 15.3929 1.24574 15.3798 3.34247L15.3217 12.0697C15.3108 13.6487 14.206 15.0021 12.6809 15.3047L4.25403 16.9752C2.2293 17.3767 0.350027 15.7919 0.363845 13.6945Z" fill="#B2DDFF"/>
<path id="Vector_2" opacity="0.5" d="M4.49226 17.1762L4.55044 8.44892C4.5599 6.87073 5.66535 5.51728 7.19045 5.21473L15.6174 3.54492C17.6421 3.14346 19.5214 4.72746 19.5075 6.82492L19.4494 15.5522C19.4392 17.1311 18.3344 18.4846 16.8094 18.7871L8.38245 20.4576C6.35772 20.8584 4.47845 19.2744 4.49226 17.1776V17.1762Z" fill="#B2DDFF"/>
<path id="Vector_3" opacity="0.8" d="M8.62091 20.6571L8.67909 11.9298C8.68928 10.3502 9.794 8.99748 11.3191 8.69493L19.746 7.02439C21.7707 6.62293 23.65 8.20766 23.6362 10.3044L23.578 19.0317C23.5678 20.6113 22.4631 21.9647 20.938 22.2666L12.5111 23.9371C10.4864 24.3386 8.60709 22.7538 8.62019 20.6571H8.62091Z" fill="#B2DDFF"/>
</g>
<defs>
<clipPath id="clip0_100_16167">
<rect width="24" height="24" fill="white"/>
</clipPath>
</defs>
</svg>
