<svg width="222" height="48" viewBox="0 0 222 48" fill="none" xmlns="http://www.w3.org/2000/svg">
  <path d="M0.332031 15.142H5.55646L9.98828 25.9489H10.1928L14.6246 15.142H19.8491V32.5966H15.7411V21.875H15.5962L11.4031 32.4858H8.77805L4.58487 21.8153H4.43999V32.5966H0.332031V15.142Z" fill="black"/>
  <path d="M28.5913 32.8438C27.2163 32.8438 26.0344 32.5625 25.0458 32C24.0629 31.4318 23.3043 30.642 22.7702 29.6307C22.2418 28.6136 21.9776 27.4347 21.9776 26.0938C21.9776 24.7472 22.2418 23.5682 22.7702 22.5568C23.3043 21.5398 24.0629 20.75 25.0458 20.1875C26.0344 19.6193 27.2163 19.3352 28.5913 19.3352C29.9663 19.3352 31.1452 19.6193 32.1282 20.1875C33.1168 20.75 33.8754 21.5398 34.4038 22.5568C34.9379 23.5682 35.2049 24.7472 35.2049 26.0938C35.2049 27.4347 34.9379 28.6136 34.4038 29.6307C33.8754 30.642 33.1168 31.4318 32.1282 32C31.1452 32.5625 29.9663 32.8438 28.5913 32.8438ZM28.6168 29.6989C29.1168 29.6989 29.5401 29.5455 29.8867 29.2386C30.2333 28.9318 30.4975 28.5057 30.6793 27.9602C30.8668 27.4148 30.9606 26.7841 30.9606 26.0682C30.9606 25.3409 30.8668 24.7045 30.6793 24.1591C30.4975 23.6136 30.2333 23.1875 29.8867 22.8807C29.5401 22.5739 29.1168 22.4205 28.6168 22.4205C28.0998 22.4205 27.6623 22.5739 27.3043 22.8807C26.9521 23.1875 26.6822 23.6136 26.4947 24.1591C26.3129 24.7045 26.2219 25.3409 26.2219 26.0682C26.2219 26.7841 26.3129 27.4148 26.4947 27.9602C26.6822 28.5057 26.9521 28.9318 27.3043 29.2386C27.6623 29.5455 28.0998 29.6989 28.6168 29.6989Z" fill="black"/>
  <path d="M41.5075 25.1307V32.5966H37.3398V19.5057H41.3029V21.9091H41.4478C41.7376 21.108 42.2319 20.4801 42.9308 20.0256C43.6296 19.5653 44.462 19.3352 45.4279 19.3352C46.3484 19.3352 47.1467 19.5426 47.8228 19.9574C48.5046 20.3665 49.033 20.9403 49.408 21.679C49.7887 22.4119 49.9762 23.2699 49.9705 24.2528V32.5966H45.8029V25.071C45.8086 24.3438 45.6239 23.7756 45.2489 23.3665C44.8796 22.9574 44.3654 22.7528 43.7063 22.7528C43.2688 22.7528 42.8825 22.8494 42.5472 23.0426C42.2177 23.2301 41.962 23.5 41.7802 23.8523C41.604 24.2045 41.5131 24.6307 41.5075 25.1307Z" fill="black"/>
  <path d="M56.2411 32.8182C55.4059 32.8182 54.6644 32.679 54.0167 32.4006C53.3746 32.1165 52.8661 31.6903 52.4911 31.1222C52.1218 30.5483 51.9371 29.8295 51.9371 28.9659C51.9371 28.2386 52.065 27.625 52.3207 27.125C52.5763 26.625 52.9286 26.2188 53.3775 25.9063C53.8264 25.5938 54.3434 25.358 54.9286 25.1989C55.5139 25.0341 56.1389 24.9233 56.8036 24.8665C57.5479 24.7983 58.1474 24.7273 58.6019 24.6534C59.0565 24.5739 59.386 24.4631 59.5906 24.321C59.8008 24.1733 59.9059 23.9659 59.9059 23.6989V23.6563C59.9059 23.2188 59.7553 22.8807 59.4542 22.642C59.1531 22.4034 58.7468 22.2841 58.2354 22.2841C57.6843 22.2841 57.2411 22.4034 56.9059 22.642C56.5707 22.8807 56.3576 23.2102 56.2667 23.6307L52.4229 23.4943C52.5366 22.6989 52.8292 21.9886 53.3008 21.3636C53.7781 20.733 54.4315 20.2386 55.261 19.8807C56.0962 19.517 57.0991 19.3352 58.2695 19.3352C59.1048 19.3352 59.8746 19.4347 60.5792 19.6335C61.2837 19.8267 61.8974 20.1108 62.4201 20.4858C62.9428 20.8551 63.3462 21.3097 63.6303 21.8494C63.9201 22.3892 64.065 23.0057 64.065 23.6989V32.5966H60.1445V30.7727H60.0423C59.8093 31.2159 59.511 31.5909 59.1474 31.8977C58.7894 32.2045 58.3661 32.4347 57.8775 32.5881C57.3945 32.7415 56.8491 32.8182 56.2411 32.8182ZM57.5281 30.0909C57.9769 30.0909 58.3803 30 58.7383 29.8182C59.1019 29.6364 59.3917 29.3864 59.6076 29.0682C59.8235 28.7443 59.9315 28.3693 59.9315 27.9432V26.6989C59.8121 26.7614 59.6673 26.8182 59.4968 26.8693C59.332 26.9205 59.1502 26.9688 58.9514 27.0142C58.7525 27.0597 58.5479 27.0994 58.3377 27.1335C58.1275 27.1676 57.9258 27.1989 57.7326 27.2273C57.3406 27.2898 57.0053 27.3864 56.7269 27.517C56.4542 27.6477 56.244 27.8182 56.0962 28.0284C55.9542 28.233 55.8832 28.4773 55.8832 28.7614C55.8832 29.1932 56.0366 29.5227 56.3434 29.75C56.6559 29.9773 57.0508 30.0909 57.5281 30.0909Z" fill="black"/>
  <path d="M78.0423 23.5028L74.2156 23.6051C74.1758 23.3324 74.0678 23.0909 73.8917 22.8807C73.7156 22.6648 73.4854 22.4972 73.2013 22.3778C72.9229 22.2528 72.5991 22.1903 72.2298 22.1903C71.7468 22.1903 71.3349 22.2869 70.994 22.4801C70.6587 22.6733 70.494 22.9347 70.4996 23.2642C70.494 23.5199 70.5962 23.7415 70.8065 23.929C71.0224 24.1165 71.4059 24.267 71.957 24.3807L74.4798 24.858C75.7866 25.108 76.7582 25.5227 77.3945 26.1023C78.0366 26.6818 78.3604 27.4489 78.3661 28.4034C78.3604 29.3011 78.0934 30.0824 77.565 30.7472C77.0423 31.4119 76.3263 31.929 75.4173 32.2983C74.5082 32.6619 73.4684 32.8438 72.2979 32.8438C70.4286 32.8438 68.9542 32.4602 67.8746 31.6932C66.8008 30.9205 66.1871 29.8864 66.0337 28.5909L70.1502 28.4886C70.2411 28.9659 70.4769 29.3295 70.8576 29.5795C71.2383 29.8295 71.7241 29.9545 72.315 29.9545C72.8491 29.9545 73.2837 29.8551 73.619 29.6563C73.9542 29.4574 74.1246 29.1932 74.1303 28.8636C74.1246 28.5682 73.994 28.3324 73.7383 28.1563C73.4826 27.9744 73.082 27.8324 72.5366 27.7301L70.2525 27.2955C68.94 27.0568 67.9627 26.6165 67.3207 25.9744C66.6786 25.3267 66.3604 24.5028 66.3661 23.5028C66.3604 22.6278 66.5934 21.8807 67.065 21.2614C67.5366 20.6364 68.207 20.1591 69.0763 19.8295C69.9457 19.5 70.9712 19.3352 72.1531 19.3352C73.9258 19.3352 75.3235 19.7074 76.3462 20.4517C77.369 21.1903 77.9343 22.2074 78.0423 23.5028Z" fill="black"/>
  <path d="M84.5856 25.1307V32.5966H80.418V15.142H84.4492V21.9091H84.5941C84.8896 21.1023 85.3725 20.4716 86.043 20.017C86.7191 19.5625 87.5458 19.3352 88.5231 19.3352C89.4435 19.3352 90.2447 19.5398 90.9265 19.9489C91.6083 20.3523 92.1367 20.9233 92.5117 21.6619C92.8924 22.4006 93.0799 23.2642 93.0742 24.2528V32.5966H88.9066V25.071C88.9123 24.3438 88.7305 23.7756 88.3612 23.3665C87.9918 22.9574 87.4719 22.7528 86.8015 22.7528C86.364 22.7528 85.9776 22.8494 85.6424 23.0426C85.3129 23.2301 85.0543 23.5 84.8668 23.8523C84.685 24.2045 84.5913 24.6307 84.5856 25.1307Z" fill="black"/>
  <path d="M111.392 15.142H115.602V26.4006C115.602 27.7017 115.292 28.8352 114.673 29.8011C114.054 30.7614 113.19 31.5057 112.082 32.0341C110.974 32.5568 109.687 32.8182 108.221 32.8182C106.738 32.8182 105.443 32.5568 104.335 32.0341C103.227 31.5057 102.366 30.7614 101.752 29.8011C101.139 28.8352 100.832 27.7017 100.832 26.4006V15.142H105.051V26.0341C105.051 26.6364 105.181 27.1733 105.443 27.6449C105.71 28.1165 106.082 28.4858 106.559 28.7528C107.037 29.0199 107.591 29.1534 108.221 29.1534C108.852 29.1534 109.403 29.0199 109.875 28.7528C110.352 28.4858 110.724 28.1165 110.991 27.6449C111.258 27.1733 111.392 26.6364 111.392 26.0341V15.142Z" fill="black"/>
  <path d="M122.414 25.1307V32.5966H118.246V19.5057H122.209V21.9091H122.354C122.644 21.108 123.138 20.4801 123.837 20.0256C124.536 19.5653 125.368 19.3352 126.334 19.3352C127.255 19.3352 128.053 19.5426 128.729 19.9574C129.411 20.3665 129.939 20.9403 130.314 21.679C130.695 22.4119 130.882 23.2699 130.877 24.2528V32.5966H126.709V25.071C126.715 24.3438 126.53 23.7756 126.155 23.3665C125.786 22.9574 125.272 22.7528 124.613 22.7528C124.175 22.7528 123.789 22.8494 123.453 23.0426C123.124 23.2301 122.868 23.5 122.686 23.8523C122.51 24.2045 122.419 24.6307 122.414 25.1307Z" fill="black"/>
  <path d="M133.457 32.5966V19.5057H137.625V32.5966H133.457ZM135.545 17.9801C134.96 17.9801 134.457 17.7869 134.037 17.4006C133.616 17.0085 133.406 16.5369 133.406 15.9858C133.406 15.4403 133.616 14.9744 134.037 14.5881C134.457 14.196 134.96 14 135.545 14C136.136 14 136.639 14.196 137.054 14.5881C137.474 14.9744 137.684 15.4403 137.684 15.9858C137.684 16.5369 137.474 17.0085 137.054 17.4006C136.639 17.7869 136.136 17.9801 135.545 17.9801Z" fill="black"/>
  <path d="M152.976 19.5057L148.485 32.5966H143.712L139.229 19.5057H143.618L146.03 28.5227H146.167L148.587 19.5057H152.976Z" fill="black"/>
  <path d="M160.272 32.8438C158.902 32.8438 157.721 32.5739 156.726 32.0341C155.738 31.4886 154.976 30.7131 154.442 29.7074C153.914 28.696 153.65 27.4943 153.65 26.1023C153.65 24.75 153.917 23.5682 154.451 22.5568C154.985 21.5398 155.738 20.75 156.709 20.1875C157.681 19.6193 158.826 19.3352 160.144 19.3352C161.076 19.3352 161.928 19.4801 162.701 19.7699C163.473 20.0597 164.141 20.4886 164.703 21.0568C165.266 21.625 165.703 22.3267 166.016 23.1619C166.328 23.9915 166.485 24.9432 166.485 26.017V27.0568H155.107V24.6364H162.607C162.601 24.1932 162.496 23.7983 162.292 23.4517C162.087 23.1051 161.806 22.8352 161.448 22.642C161.096 22.4432 160.689 22.3438 160.229 22.3438C159.763 22.3438 159.346 22.4489 158.976 22.6591C158.607 22.8636 158.314 23.1449 158.098 23.5028C157.882 23.8551 157.769 24.2557 157.757 24.7045V27.1676C157.757 27.7017 157.863 28.1705 158.073 28.5739C158.283 28.9716 158.581 29.2813 158.968 29.5028C159.354 29.7244 159.814 29.8352 160.348 29.8352C160.718 29.8352 161.053 29.7841 161.354 29.6818C161.655 29.5795 161.914 29.429 162.13 29.2301C162.346 29.0313 162.507 28.7869 162.615 28.4972L166.442 28.608C166.283 29.4659 165.934 30.2131 165.394 30.8494C164.86 31.4801 164.158 31.9716 163.289 32.3239C162.419 32.6705 161.414 32.8438 160.272 32.8438Z" fill="black"/>
  <path d="M168.613 32.5966V19.5057H172.662V21.892H172.798C173.037 21.0284 173.426 20.3864 173.966 19.9659C174.505 19.5398 175.133 19.3267 175.849 19.3267C176.042 19.3267 176.241 19.3409 176.446 19.3693C176.65 19.392 176.841 19.429 177.017 19.4801V23.1023C176.818 23.0341 176.556 22.9801 176.233 22.9403C175.914 22.9006 175.63 22.8807 175.38 22.8807C174.886 22.8807 174.44 22.9915 174.042 23.2131C173.65 23.429 173.341 23.733 173.113 24.125C172.892 24.5114 172.781 24.9659 172.781 25.4886V32.5966H168.613Z" fill="black"/>
  <path d="M190.144 23.5028L186.317 23.6051C186.277 23.3324 186.169 23.0909 185.993 22.8807C185.817 22.6648 185.587 22.4972 185.303 22.3778C185.025 22.2528 184.701 22.1903 184.331 22.1903C183.848 22.1903 183.436 22.2869 183.096 22.4801C182.76 22.6733 182.596 22.9347 182.601 23.2642C182.596 23.5199 182.698 23.7415 182.908 23.929C183.124 24.1165 183.507 24.267 184.059 24.3807L186.581 24.858C187.888 25.108 188.86 25.5227 189.496 26.1023C190.138 26.6818 190.462 27.4489 190.468 28.4034C190.462 29.3011 190.195 30.0824 189.667 30.7472C189.144 31.4119 188.428 31.929 187.519 32.2983C186.61 32.6619 185.57 32.8438 184.4 32.8438C182.53 32.8438 181.056 32.4602 179.976 31.6932C178.902 30.9205 178.289 29.8864 178.135 28.5909L182.252 28.4886C182.343 28.9659 182.578 29.3295 182.959 29.5795C183.34 29.8295 183.826 29.9545 184.417 29.9545C184.951 29.9545 185.385 29.8551 185.721 29.6563C186.056 29.4574 186.226 29.1932 186.232 28.8636C186.226 28.5682 186.096 28.3324 185.84 28.1563C185.584 27.9744 185.184 27.8324 184.638 27.7301L182.354 27.2955C181.042 27.0568 180.064 26.6165 179.422 25.9744C178.78 25.3267 178.462 24.5028 178.468 23.5028C178.462 22.6278 178.695 21.8807 179.167 21.2614C179.638 20.6364 180.309 20.1591 181.178 19.8295C182.047 19.5 183.073 19.3352 184.255 19.3352C186.027 19.3352 187.425 19.7074 188.448 20.4517C189.471 21.1903 190.036 22.2074 190.144 23.5028Z" fill="black"/>
  <path d="M192.52 32.5966V19.5057H196.687V32.5966H192.52ZM194.608 17.9801C194.022 17.9801 193.52 17.7869 193.099 17.4006C192.679 17.0085 192.468 16.5369 192.468 15.9858C192.468 15.4403 192.679 14.9744 193.099 14.5881C193.52 14.196 194.022 14 194.608 14C195.199 14 195.701 14.196 196.116 14.5881C196.537 14.9744 196.747 15.4403 196.747 15.9858C196.747 16.5369 196.537 17.0085 196.116 17.4006C195.701 17.7869 195.199 17.9801 194.608 17.9801Z" fill="black"/>
  <path d="M206.729 19.5057V22.5739H198.471V19.5057H206.729ZM200.201 16.3693H204.368V28.4801C204.368 28.7358 204.408 28.9432 204.488 29.1023C204.573 29.2557 204.695 29.3665 204.854 29.4347C205.013 29.4972 205.203 29.5284 205.425 29.5284C205.584 29.5284 205.752 29.5142 205.928 29.4858C206.11 29.4517 206.246 29.4233 206.337 29.4006L206.968 32.4091C206.769 32.4659 206.488 32.5369 206.124 32.6222C205.766 32.7074 205.337 32.7614 204.837 32.7841C203.86 32.8295 203.022 32.7159 202.323 32.4432C201.63 32.1648 201.098 31.733 200.729 31.1477C200.365 30.5625 200.189 29.8267 200.201 28.9403V16.3693Z" fill="black"/>
  <path d="M211.404 37.5057C210.904 37.5057 210.432 37.4659 209.989 37.3864C209.546 37.3125 209.165 37.2131 208.847 37.0881L209.767 34.0625C210.176 34.1989 210.546 34.2784 210.875 34.3011C211.211 34.3239 211.498 34.2699 211.736 34.1392C211.98 34.0142 212.168 33.7898 212.299 33.4659L212.461 33.0739L207.807 19.5057H212.171L214.583 28.8466H214.719L217.165 19.5057H221.554L216.62 33.8494C216.381 34.5653 216.043 35.196 215.605 35.7415C215.174 36.2926 214.614 36.7244 213.926 37.0369C213.245 37.3494 212.404 37.5057 211.404 37.5057Z" fill="black"/>
</svg>