<?xml version="1.0" encoding="UTF-8"?>
<svg version="1.1" xmlns="http://www.w3.org/2000/svg" width="512" height="480">
<path d="M0 0 C1.55835571 -0.00430527 1.55835571 -0.00430527 3.14819336 -0.00869751 C5.33675687 -0.01073187 7.52533883 -0.00524612 9.71386719 0.00732422 C13.05184834 0.02338625 16.38861873 0.00745353 19.7265625 -0.01171875 C21.85937766 -0.00973621 23.99219206 -0.00589231 26.125 0 C27.11685303 -0.00607269 28.10870605 -0.01214539 29.13061523 -0.0184021 C34.86088982 0.03937567 39.03581168 0.557157 44.0625 3.3984375 C46.17462504 6.56662506 46.39406464 8.53063002 46.62109375 12.265625 C45.68686509 15.83267988 43.97455269 17.18134045 41.0625 19.3984375 C37.68419378 19.87307376 34.42394352 19.5058778 31.0390625 19.19140625 C29.03510935 19.07396345 27.03057436 18.96613139 25.02563477 18.86694336 C23.98770782 18.81537079 22.94978088 18.76379822 21.88040161 18.71066284 C6.05722703 17.47933209 6.05722703 17.47933209 -8.32470703 22.55664062 C-13.52545144 28.39831821 -16.03715518 35.42555987 -18.55761719 42.73681641 C-20.82294474 48.7480306 -24.17540097 54.0495566 -27.5 59.5234375 C-28.757663 61.69238701 -30.01030674 63.86425501 -31.2578125 66.0390625 C-34.77667845 72.12905144 -38.32356941 78.20240067 -41.875 84.2734375 C-46.95025123 92.95105991 -51.96008767 101.66449318 -56.9375 110.3984375 C-61.9149266 119.13240686 -66.92727461 127.8443214 -72 136.5234375 C-72.55558594 137.47903564 -73.11117187 138.43463379 -73.68359375 139.41918945 C-76.46304329 144.19476729 -79.26490131 148.95433658 -82.12242126 153.68353271 C-83.55797662 156.0654241 -84.97914476 158.45572391 -86.39840698 160.84735107 C-87.41683609 162.55136313 -88.45445874 164.24385692 -89.49243164 165.93603516 C-90.1033667 166.96905762 -90.71430176 168.00208008 -91.34375 169.06640625 C-91.89353516 169.97672607 -92.44332031 170.8870459 -93.00976562 171.82495117 C-94.19715594 174.35907935 -94.19715594 174.35907935 -93.29223633 176.87915039 C-92.62164185 178.12619751 -92.62164185 178.12619751 -91.9375 179.3984375 C-91.46465576 180.29594727 -90.99181152 181.19345703 -90.50463867 182.11816406 C-89.9604126 183.08206055 -89.41618652 184.04595703 -88.85546875 185.0390625 C-88.25283203 186.11027344 -87.65019531 187.18148437 -87.02929688 188.28515625 C-86.40087891 189.39503906 -85.77246094 190.50492188 -85.125 191.6484375 C-83.29187727 194.9009374 -81.45903618 198.15359107 -79.62792969 201.40722656 C-78.55867714 203.29926616 -77.48211689 205.18721066 -76.39550781 207.06933594 C-75.94401367 207.85856445 -75.49251953 208.64779297 -75.02734375 209.4609375 C-74.63538818 210.13769531 -74.24343262 210.81445312 -73.83959961 211.51171875 C-72.32402412 214.68150695 -72.28191242 216.98938211 -72.9375 220.3984375 C-74.96805606 223.47702249 -76.4519032 225.0438285 -80.09765625 225.9140625 C-84.43835613 226.23291191 -84.43835613 226.23291191 -86.9375 225.3984375 C-92.2924031 220.18753179 -95.60218815 213.3495797 -99.25 206.8984375 C-100.25036777 205.13584111 -101.25165731 203.37377105 -102.25312805 201.61180115 C-103.22534103 199.9007429 -104.19617884 198.18890353 -105.16699219 196.47705078 C-106.63690607 193.92111945 -108.14110149 191.39958846 -109.6953125 188.89453125 C-110.07389404 188.27449219 -110.45247559 187.65445313 -110.8425293 187.015625 C-111.78765286 185.47803926 -112.75038137 183.95131092 -113.71484375 182.42578125 C-115.78520191 177.29949506 -116.04372733 173.00424514 -113.85473633 167.84790039 C-112.29230003 164.9817267 -110.61381609 162.22365414 -108.875 159.4609375 C-107.57961845 157.32489194 -106.28538618 155.18814907 -104.9921875 153.05078125 C-104.32026367 151.95362793 -103.64833984 150.85647461 -102.95605469 149.72607422 C-99.71195222 144.37809204 -96.60968314 138.95030039 -93.5 133.5234375 C-92.24137333 131.33826056 -90.98225617 129.15336607 -89.72265625 126.96875 C-89.09762207 125.88368164 -88.47258789 124.79861328 -87.82861328 123.68066406 C-84.70069852 118.25183808 -81.56891552 112.82524469 -78.4375 107.3984375 C-77.18748121 105.23178167 -75.93748122 103.065115 -74.6875 100.8984375 C-67.1875 87.8984375 -59.6875 74.8984375 -52.1875 61.8984375 C-51.56818604 60.82489014 -50.94887207 59.75134277 -50.31079102 58.64526367 C-49.06673208 56.48903537 -47.82243058 54.33294701 -46.57788086 52.17700195 C-43.35993226 46.60178266 -40.14668193 41.02392075 -36.94140625 35.44140625 C-33.81459961 29.99678116 -30.67012377 24.56269275 -27.51611328 19.13378906 C-26.14655633 16.7606811 -24.80085705 14.37644274 -23.46484375 11.984375 C-22.7898599 10.80943738 -22.11417188 9.63490376 -21.4375 8.4609375 C-20.9115625 7.52378906 -20.385625 6.58664063 -19.84375 5.62109375 C-14.66281144 -0.41979568 -7.35286242 -0.04501844 0 0 Z " fill="#2F90F7" transform="translate(242.9375,126.6015625)"/>
<path d="M0 0 C1.17369141 0.10054687 1.17369141 0.10054687 2.37109375 0.203125 C4.992607 0.85733508 5.93031852 1.62020221 7.5625 3.75 C8.82156642 7.89751291 9.24544469 10.22711011 7.45483398 14.2199707 C6.95282471 15.09226318 6.45081543 15.96455566 5.93359375 16.86328125 C5.38372803 17.83152832 4.8338623 18.79977539 4.26733398 19.79736328 C3.42344116 21.25891846 3.42344116 21.25891846 2.5625 22.75 C1.5817238 24.50300671 0.60251893 26.25689362 -0.375 28.01171875 C-1.39446043 29.82108673 -2.41534659 31.62965198 -3.4375 33.4375 C-3.9958252 34.42516357 -4.55415039 35.41282715 -5.12939453 36.43041992 C-9.71059445 44.51162596 -14.37463304 52.54257062 -19.06665039 60.55981445 C-23.36216368 67.89997905 -27.62799052 75.25666777 -31.875 82.625 C-32.49383057 83.6984668 -33.11266113 84.77193359 -33.75024414 85.87792969 C-36.30026187 90.30267838 -38.84908405 94.7281147 -41.39746094 99.15380859 C-45.17565533 105.71460476 -48.95997523 112.27179126 -52.75097656 118.82519531 C-54.32988583 121.56337322 -55.89691682 124.30798719 -57.4609375 127.0546875 C-58.34869393 128.59911034 -59.23669502 130.1433926 -60.125 131.6875 C-60.51083252 132.37336182 -60.89666504 133.05922363 -61.29418945 133.76586914 C-63.26350504 137.16629406 -64.95211979 139.82821921 -68.4375 141.75 C-73.35057062 142.37388198 -75.30084406 142.50777063 -79.4375 139.75 C-81.97719564 135.94045653 -82.28108971 133.14643439 -81.4375 128.75 C-79.65395065 124.5675993 -77.38125853 120.71807445 -75.0625 116.8125 C-74.09848267 115.14272095 -74.09848267 115.14272095 -73.11499023 113.43920898 C-71.23933176 110.19926489 -69.34184698 106.97314249 -67.4375 103.75 C-66.56042355 102.25045265 -65.68401122 100.75051644 -64.80859375 99.25 C-63.25110551 96.58838301 -61.68302697 93.93333775 -60.109375 91.28125 C-56.77748092 85.65132145 -53.51602327 79.9808083 -50.25 74.3125 C-49.61199463 73.20527588 -48.97398926 72.09805176 -48.31665039 70.95727539 C-47.00860523 68.68662932 -45.70074552 66.41587642 -44.39306641 64.14501953 C-42.48600419 60.83420715 -40.57737044 57.52430739 -38.66796875 54.21484375 C-38.05131348 53.14596924 -37.4346582 52.07709473 -36.79931641 50.97583008 C-35.5612929 48.83079932 -34.32268905 46.68610341 -33.08349609 44.54174805 C-30.17475472 39.50621376 -27.27244079 34.46733614 -24.39474487 29.41400146 C-23.37942342 27.63180857 -22.36191725 25.85088088 -21.34375 24.0703125 C-20.06986937 21.8410214 -18.80006089 19.60939631 -17.53515625 17.375 C-7.18250223 -0.70763569 -7.18250223 -0.70763569 0 0 Z " fill="#2F90F7" transform="translate(328.4375,210.25)"/>
<path d="M0 0 C2.65089172 2.37666154 2.9793408 3.8512879 3.47265625 7.40234375 C3.36384367 13.68929293 -0.25274229 18.67995115 -3.375 23.9375 C-4.00970215 25.03473389 -4.6444043 26.13196777 -5.29833984 27.26245117 C-6.58133347 29.47525115 -7.87178523 31.68374485 -9.16992188 33.88769531 C-10.80672898 36.6713155 -12.41750849 39.4674928 -14.015625 42.2734375 C-14.88450347 43.78698294 -15.75422749 45.30004345 -16.625 46.8125 C-17.01349121 47.4923999 -17.40198242 48.1722998 -17.80224609 48.87280273 C-19.85034432 52.36680255 -21.79903374 55.47783787 -25 58 C-28.06216325 58.73319402 -30.91177501 58.57904219 -34 58 C-36.50160818 56.12379387 -37.61945652 54.76108697 -39 52 C-39.08966245 45.48480826 -37.28593102 40.82003363 -33.8125 35.4375 C-32.90841844 33.97633424 -32.00619006 32.51402079 -31.10546875 31.05078125 C-30.61224121 30.25752441 -30.11901367 29.46426758 -29.61083984 28.64697266 C-27.80727754 25.68331359 -26.08136899 22.68195972 -24.36328125 19.66796875 C-23.74412842 18.58523682 -23.12497559 17.50250488 -22.48706055 16.38696289 C-21.26101514 14.2391731 -20.03969438 12.08867829 -18.82348633 9.93530273 C-18.25525146 8.94860596 -17.6870166 7.96190918 -17.1015625 6.9453125 C-16.59963379 6.06375488 -16.09770508 5.18219727 -15.58056641 4.27392578 C-13.37654019 1.10304222 -11.2175838 -0.59413873 -7.5625 -1.8125 C-4.40924858 -2.04322571 -2.76113176 -1.5258886 0 0 Z " fill="#3090F6" transform="translate(381,294)"/>
<path d="M0 0 C1.55835571 -0.00430527 1.55835571 -0.00430527 3.14819336 -0.00869751 C5.33675687 -0.01073187 7.52533883 -0.00524612 9.71386719 0.00732422 C13.05184834 0.02338625 16.38861873 0.00745353 19.7265625 -0.01171875 C21.85937766 -0.00973621 23.99219206 -0.00589231 26.125 0 C27.11685303 -0.00607269 28.10870605 -0.01214539 29.13061523 -0.0184021 C34.86088982 0.03937567 39.03581168 0.557157 44.0625 3.3984375 C46.74177341 7.41734762 46.21851248 9.64005673 46.0625 14.3984375 C45.4025 14.7284375 44.7425 15.0584375 44.0625 15.3984375 C44.0625 12.0984375 44.0625 8.7984375 44.0625 5.3984375 C42.7425 5.0684375 41.4225 4.7384375 40.0625 4.3984375 C40.0625 3.7384375 40.0625 3.0784375 40.0625 2.3984375 C22.2425 2.3984375 4.4225 2.3984375 -13.9375 2.3984375 C-13.9375 3.0584375 -13.9375 3.7184375 -13.9375 4.3984375 C-14.9275 4.7284375 -15.9175 5.0584375 -16.9375 5.3984375 C-17.2675 6.3884375 -17.5975 7.3784375 -17.9375 8.3984375 C-18.5975 8.3984375 -19.2575 8.3984375 -19.9375 8.3984375 C-19.375 6.0859375 -19.375 6.0859375 -17.9375 3.3984375 C-12.0132643 0.04913422 -6.70211994 -0.04103422 0 0 Z " fill="#3E88D4" transform="translate(242.9375,126.6015625)"/>
<path d="M0 0 C0.33 1.32 0.66 2.64 1 4 C0.34 4 -0.32 4 -1 4 C-1 5.32 -1 6.64 -1 8 C-1.66 8 -2.32 8 -3 8 C-3 9.32 -3 10.64 -3 12 C-2.34 12.33 -1.68 12.66 -1 13 C-1.33 14.65 -1.66 16.3 -2 18 C-2.66 17.67 -3.32 17.34 -4 17 C-4.66 17.33 -5.32 17.66 -6 18 C-6.33 18.99 -6.66 19.98 -7 21 C-6.34 21 -5.68 21 -5 21 C-1.99382731 24.00617269 -2.40414684 26.82381598 -2 31 C-6.1208204 26.05501552 -8.66846602 22.39461353 -8.6015625 15.7265625 C-7.31236065 9.88329698 -3.36728869 4.86302629 0 0 Z M-5 11 C-5.33 12.65 -5.66 14.3 -6 16 C-5.01 15.01 -4.02 14.02 -3 13 C-3.66 12.34 -4.32 11.68 -5 11 Z " fill="#3293F4" transform="translate(136,284)"/>
<path d="M0 0 C2 1.5 2 1.5 4 4 C4.84121712 10.41428057 3.54466136 13.68300795 0 19 C-1 17 -1 17 -0.5 14.125 C-0.02737246 11.17107788 0.12370429 9.7156187 -1 7 C-2.47890069 5.26973898 -2.47890069 5.26973898 -4 4 C-2.68 4 -1.36 4 0 4 C0 2.68 0 1.36 0 0 Z " fill="#358DED" transform="translate(380,294)"/>
<path d="M0 0 C0.33 1.32 0.66 2.64 1 4 C0.34 4 -0.32 4 -1 4 C-1 5.32 -1 6.64 -1 8 C-1.99 8.495 -1.99 8.495 -3 9 C-3.69227032 11.80980673 -3.69227032 11.80980673 -4.125 15.0625 C-4.29257813 16.16722656 -4.46015625 17.27195312 -4.6328125 18.41015625 C-4.75398437 19.26480469 -4.87515625 20.11945313 -5 21 C-4.34 21 -3.68 21 -3 21 C-3.33 21.99 -3.66 22.98 -4 24 C-6.44044346 21.55955654 -7.01209837 19.93224915 -7.625 16.5 C-7.45947031 10.25716609 -3.30468852 5.05819671 0 0 Z " fill="#428DDD" transform="translate(254,327)"/>
<path d="M0 0 C0.99 0.66 1.98 1.32 3 2 C3 5.20395416 2.25664978 7.09399739 1 10 C-0.32 9.67 -1.64 9.34 -3 9 C-3.66 10.65 -4.32 12.3 -5 14 C-5.66 14 -6.32 14 -7 14 C-5.53967505 8.68972746 -3.01679014 4.53669968 0 0 Z " fill="#3A8CE7" transform="translate(163,237)"/>
<path d="M0 0 C0.33 1.32 0.66 2.64 1 4 C1.66 4 2.32 4 3 4 C2.67 4.99 2.34 5.98 2 7 C1.01 7.33 0.02 7.66 -1 8 C-1.309375 8.639375 -1.61875 9.27875 -1.9375 9.9375 C-3.2342338 12.45468915 -4.4221737 12.96886948 -7 14 C-5.53967505 8.68972746 -3.01679014 4.53669968 0 0 Z " fill="#3B8DE5" transform="translate(204,166)"/>
<path d="M0 0 C1.95216435 1.95216435 2.84826645 3.53199953 4 6 C4.99 5.67 5.98 5.34 7 5 C7 4.01 7 3.02 7 2 C7.99 2.33 8.98 2.66 10 3 C8.5625 5.5 8.5625 5.5 6 8 C1.32276053 8.86959506 -2.02572757 8.64951495 -6 6 C-5.67 5.34 -5.34 4.68 -5 4 C-2.525 4.99 -2.525 4.99 0 6 C0 4.02 0 2.04 0 0 Z " fill="#3E91E8" transform="translate(350,344)"/>
<path d="M0 0 C1.17755859 0.11408203 1.17755859 0.11408203 2.37890625 0.23046875 C4.4375 0.8125 4.4375 0.8125 6.4375 3.8125 C3.9625 2.8225 3.9625 2.8225 1.4375 1.8125 C1.7675 3.1325 2.0975 4.4525 2.4375 5.8125 C1.1175 5.8125 -0.2025 5.8125 -1.5625 5.8125 C-1.5625 4.4925 -1.5625 3.1725 -1.5625 1.8125 C-2.51125 2.286875 -3.46 2.76125 -4.4375 3.25 C-6.14583333 4.10416667 -7.85416667 4.95833333 -9.5625 5.8125 C-7.48511866 1.01854307 -5.22868495 -0.59436452 0 0 Z " fill="#3F8CE2" transform="translate(328.5625,210.1875)"/>
<path d="M0 0 C0.33 1.32 0.66 2.64 1 4 C0.34 4 -0.32 4 -1 4 C-1.33 5.98 -1.66 7.96 -2 10 C-2.99 10.33 -3.98 10.66 -5 11 C-5 11.99 -5 12.98 -5 14 C-5.66 14 -6.32 14 -7 14 C-7.33 15.65 -7.66 17.3 -8 19 C-8.66 19 -9.32 19 -10 19 C-8.62394084 14.23448987 -6.53221934 10.2751447 -3.875 6.125 C-3.50246094 5.53203125 -3.12992187 4.9390625 -2.74609375 4.328125 C-1.83635 2.8818657 -0.91896202 1.44041954 0 0 Z " fill="#448DDF" transform="translate(310,230)"/>
<path d="M0 0 C8.79871863 -0.76882007 8.79871863 -0.76882007 13.125 2 C15.64212891 6.02740626 15.39656144 8.32057498 15 13 C14.01 13.495 14.01 13.495 13 14 C13 10.7 13 7.4 13 4 C11.68 3.67 10.36 3.34 9 3 C9 2.34 9 1.68 9 1 C6.03 1 3.06 1 0 1 C0 0.67 0 0.34 0 0 Z " fill="#448BDE" transform="translate(274,128)"/>
<path d="M0 0 C0.87056734 2.41286875 1.18561853 3.55539942 0.1796875 5.96484375 C-2.5635332 10.11252774 -5.32569507 13.64063549 -9 17 C-7.51481201 12.95698825 -5.57122002 9.38853744 -3.375 5.6875 C-2.74335938 4.61886719 -2.11171875 3.55023438 -1.4609375 2.44921875 C-0.97882813 1.64097656 -0.49671875 0.83273437 0 0 Z " fill="#448CDB" transform="translate(295,256)"/>
<path d="M0 0 C0.33 0 0.66 0 1 0 C0.67 3.3 0.34 6.6 0 10 C-1.98 10.66 -3.96 11.32 -6 12 C-4.43358249 7.69235185 -2.31663844 3.93828536 0 0 Z " fill="#3B8CE7" transform="translate(274,292)"/>
<path d="M0 0 C1.32 0.33 2.64 0.66 4 1 C1.69 5.29 -0.62 9.58 -3 14 C-4.15941038 10.52176885 -3.70820884 8.54104422 -3 5 C-2.01 5 -1.02 5 0 5 C0 3.35 0 1.7 0 0 Z " fill="#3F8CDE" transform="translate(173,251)"/>
<path d="M0 0 C0.33 0 0.66 0 1 0 C0.72875522 7.32360897 -1.96151268 11.9731443 -6 18 C-6.33 16.68 -6.66 15.36 -7 14 C-6.34 14 -5.68 14 -5 14 C-5.33 12.35 -5.66 10.7 -6 9 C-5.01 9 -4.02 9 -3 9 C-3 8.34 -3 7.68 -3 7 C-2.34 7 -1.68 7 -1 7 C-0.67 4.69 -0.34 2.38 0 0 Z " fill="#438FDB" transform="translate(336,217)"/>
<path d="M0 0 C1 3.875 1 3.875 1 5 C1.32380126 6.33568021 1.65657551 7.66923011 2 9 C0.35 9 -1.3 9 -3 9 C-3.33 9.99 -3.66 10.98 -4 12 C-4.66 12 -5.32 12 -6 12 C-4.43358249 7.69235185 -2.31663844 3.93828536 0 0 Z " fill="#3D8CE3" transform="translate(355,317)"/>
<path d="M0 0 C2 3 2 3 1.9375 4.875 C0.57701179 7.95877329 -1.49064095 9.79666035 -4 12 C-4.66 12 -5.32 12 -6 12 C-4.43358249 7.69235185 -2.31663844 3.93828536 0 0 Z " fill="#3E8EE3" transform="translate(189,192)"/>
<path d="M0 0 C0 3 0 3 -1.75 4.82421875 C-2.4925 5.43910156 -3.235 6.05398438 -4 6.6875 C-4.7425 7.31011719 -5.485 7.93273437 -6.25 8.57421875 C-6.8275 9.04472656 -7.405 9.51523437 -8 10 C-8.33 9.34 -8.66 8.68 -9 8 C-8.21366078 6.85050412 -7.42073742 5.70551011 -6.625 4.5625 C-6.18414062 3.92441406 -5.74328125 3.28632813 -5.2890625 2.62890625 C-3.63708041 0.54140161 -2.66927652 0 0 0 Z " fill="#3D8EE1" transform="translate(373,293)"/>
<path d="M0 0 C0.96733064 3.07425629 1.06567122 3.82487676 -0.125 7 C-2.08258527 10.13213644 -3.99745734 11.89010516 -7 14 C-5.23570801 9.02790438 -2.6060834 4.56561939 0 0 Z " fill="#428DDF" transform="translate(212,152)"/>
<path d="M0 0 C0.99 0.33 1.98 0.66 3 1 C2.04901734 2.98270912 1.08899297 4.96108379 0.125 6.9375 C-0.40867188 8.03964844 -0.94234375 9.14179688 -1.4921875 10.27734375 C-3 13 -3 13 -5 14 C-5 12.35 -5 10.7 -5 9 C-3.68 8.34 -2.36 7.68 -1 7 C-1 5.68 -1 4.36 -1 3 C-0.34 3 0.32 3 1 3 C0.67 2.01 0.34 1.02 0 0 Z " fill="#3F8CE1" transform="translate(196,212)"/>
<path d="M0 0 C0 3.44360632 -0.79591532 4.74795392 -2.5 7.6875 C-2.9640625 8.49574219 -3.428125 9.30398437 -3.90625 10.13671875 C-4.2671875 10.75160156 -4.628125 11.36648437 -5 12 C-5.33 12 -5.66 12 -6 12 C-6 10.02 -6 8.04 -6 6 C-5.34 6 -4.68 6 -4 6 C-4 4.68 -4 3.36 -4 2 C-2.68 1.34 -1.36 0.68 0 0 Z " fill="#3C8CE3" transform="translate(207,197)"/>
<path d="M0 0 C0.99 0.33 1.98 0.66 3 1 C3.33 1.99 3.66 2.98 4 4 C3.01 4 2.02 4 1 4 C0.67 5.65 0.34 7.3 0 9 C-2.72426311 6.64722731 -3.8141763 4.37503669 -5 1 C-4.34 1 -3.68 1 -3 1 C-2.67 1.66 -2.34 2.32 -2 3 C-1.34 2.01 -0.68 1.02 0 0 Z " fill="#3B8DEA" transform="translate(148,330)"/>
<path d="M0 0 C0.33 0 0.66 0 1 0 C1 2.31 1 4.62 1 7 C1.66 7 2.32 7 3 7 C6.00617269 10.00617269 5.59585316 12.82381598 6 17 C0.92249785 10.90699742 -0.26135822 7.84074663 0 0 Z " fill="#418DE0" transform="translate(128,298)"/>
<path d="M0 0 C0.33 0.66 0.66 1.32 1 2 C-0.21484375 4.3828125 -0.21484375 4.3828125 -1.9375 7.125 C-2.50339844 8.03507813 -3.06929688 8.94515625 -3.65234375 9.8828125 C-4.09707031 10.58148438 -4.54179687 11.28015625 -5 12 C-5.66 11.01 -6.32 10.02 -7 9 C-6.67 8.01 -6.34 7.02 -6 6 C-5.360625 5.87625 -4.72125 5.7525 -4.0625 5.625 C-3.381875 5.41875 -2.70125 5.2125 -2 5 C-0.70339566 2.50965614 -0.70339566 2.50965614 0 0 Z " fill="#3B90E2" transform="translate(322,245)"/>
<path d="M0 0 C0.33 0.66 0.66 1.32 1 2 C0.00390625 4.1640625 0.00390625 4.1640625 -1.4375 6.625 C-1.91058594 7.44226563 -2.38367188 8.25953125 -2.87109375 9.1015625 C-3.24363281 9.72804687 -3.61617187 10.35453125 -4 11 C-4.33 11 -4.66 11 -5 11 C-5.33 8.69 -5.66 6.38 -6 4 C-5.01 4 -4.02 4 -3 4 C-3 3.34 -3 2.68 -3 2 C-2.01 1.34 -1.02 0.68 0 0 Z " fill="#3F8CDD" transform="translate(182,240)"/>
<path d="M0 0 C0.71484375 1.671875 0.71484375 1.671875 1 4 C-0.43359375 6.578125 -0.43359375 6.578125 -2.4375 9.25 C-3.09621094 10.14203125 -3.75492188 11.0340625 -4.43359375 11.953125 C-4.95050781 12.62859375 -5.46742188 13.3040625 -6 14 C-6.33 13.34 -6.66 12.68 -7 12 C-5.56640625 9.1796875 -5.56640625 9.1796875 -3.5625 5.875 C-2.57443359 4.23144531 -2.57443359 4.23144531 -1.56640625 2.5546875 C-1.04949219 1.71164063 -0.53257812 0.86859375 0 0 Z " fill="#4290DC" transform="translate(179,209)"/>
<path d="M0 0 C0.66 1.32 1.32 2.64 2 4 C-0.71182212 6.60334924 -1.89133813 6.99456691 -5.75 7.1875 C-6.8225 7.125625 -7.895 7.06375 -9 7 C-9 6.67 -9 6.34 -9 6 C-7.35 6 -5.7 6 -4 6 C-4 5.01 -4 4.02 -4 3 C-2.68 3 -1.36 3 0 3 C0 2.01 0 1.02 0 0 Z " fill="#438DE1" transform="translate(167,345)"/>
<path d="M0 0 C0.33 0 0.66 0 1 0 C1.45356243 6.46326465 0.59378942 9.60931587 -3 15 C-4.53445094 11.93109813 -3.54984289 9.29905734 -3 6 C-2.01 5.67 -1.02 5.34 0 5 C0 3.35 0 1.7 0 0 Z " fill="#468EE0" transform="translate(383,298)"/>
<path d="M0 0 C1.60031344 3.20062687 0.03173691 5.72271806 -1 9 C-2.32 9.33 -3.64 9.66 -5 10 C-3.66511872 6.40608886 -2.03977277 3.24509304 0 0 Z " fill="#438DDE" transform="translate(317,218)"/>
<path d="M0 0 C2.475 0.99 2.475 0.99 5 2 C4.67 3.32 4.34 4.64 4 6 C4.66 6 5.32 6 6 6 C5.67 7.32 5.34 8.64 5 10 C4.16121545 8.71186658 3.32913217 7.41936744 2.5 6.125 C2.0359375 5.40570313 1.571875 4.68640625 1.09375 3.9453125 C0 2 0 2 0 0 Z " fill="#408EE1" transform="translate(137,320)"/>
<path d="M0 0 C2 3 2 3 2 6 C1.34 6 0.68 6 0 6 C-0.33 6.66 -0.66 7.32 -1 8 C-1.99 8.33 -2.98 8.66 -4 9 C-2.94124926 5.59687262 -1.99097846 2.98646769 0 0 Z " fill="#3F8CE3" transform="translate(281,280)"/>
<path d="M0 0 C0.33 1.32 0.66 2.64 1 4 C0.34 4 -0.32 4 -1 4 C-1 4.66 -1 5.32 -1 6 C-0.01 5.67 0.98 5.34 2 5 C2.33 5.99 2.66 6.98 3 8 C1.35 7.67 -0.3 7.34 -2 7 C-2 7.66 -2 8.32 -2 9 C-2.66 9 -3.32 9 -4 9 C-2.94124926 5.59687262 -1.99097846 2.98646769 0 0 Z " fill="#3D8EE5" transform="translate(171,223)"/>
<path d="M0 0 C0.99 0.33 1.98 0.66 3 1 C1.02 4.63 -0.96 8.26 -3 12 C-4.09658936 8.71023192 -3.79953138 7.28696233 -3 4 C-2.01 4 -1.02 4 0 4 C0 2.68 0 1.36 0 0 Z " fill="#448BD9" transform="translate(229,156)"/>
<path d="M0 0 C2.50037734 2.17424117 3.43628586 3.73045798 4 7 C3.01 7.33 2.02 7.66 1 8 C0.26919734 6.02253397 -0.39421747 4.01927511 -1 2 C-0.67 1.34 -0.34 0.68 0 0 Z " fill="#398BE5" transform="translate(152,310)"/>
<path d="M0 0 C0.6875 1.6875 0.6875 1.6875 1 4 C-0.25 6.6875 -0.25 6.6875 -2 9 C-2.99 9.33 -3.98 9.66 -5 10 C-3.66511872 6.40608886 -2.03977277 3.24509304 0 0 Z " fill="#418DDB" transform="translate(144,270)"/>
<path d="M0 0 C0.66 0.33 1.32 0.66 2 1 C0.35 3.64 -1.3 6.28 -3 9 C-5 6 -5 6 -5 4 C-4.01 4 -3.02 4 -2 4 C-1.34 2.68 -0.68 1.36 0 0 Z " fill="#3D8BE1" transform="translate(327,236)"/>
<path d="M0 0 C0.33 1.32 0.66 2.64 1 4 C0.34 4 -0.32 4 -1 4 C-1 5.32 -1 6.64 -1 8 C-2.98 8.99 -2.98 8.99 -5 10 C-3.66511872 6.40608886 -2.03977277 3.24509304 0 0 Z " fill="#458BD8" transform="translate(136,284)"/>
<path d="M0 0 C1.09658936 3.28976808 0.79953138 4.71303767 0 8 C-1.32 8.33 -2.64 8.66 -4 9 C-2.80100302 5.9168649 -1.52299523 2.93720508 0 0 Z " fill="#3D8CE1" transform="translate(267,304)"/>
<path d="M0 0 C2 2 2 2 2 5 C1.01 5 0.02 5 -1 5 C-1 5.66 -1 6.32 -1 7 C-1.66 7 -2.32 7 -3 7 C-1.125 1.125 -1.125 1.125 0 0 Z " fill="#408EEA" transform="translate(196,180)"/>
<path d="M0 0 C0.6875 1.6875 0.6875 1.6875 1 4 C-0.3125 6.75 -0.3125 6.75 -2 9 C-2.66 9 -3.32 9 -4 9 C-2.94124926 5.59687262 -1.99097846 2.98646769 0 0 Z " fill="#428DE4" transform="translate(360,308)"/>
<path d="M0 0 C1.32 0.33 2.64 0.66 4 1 C2.92598892 3.91517292 2.22189824 5.77810176 0 8 C0 5.36 0 2.72 0 0 Z " fill="#438BDC" transform="translate(306,267)"/>
</svg>
