<svg width="40" height="48" viewBox="0 0 40 48" fill="none" xmlns="http://www.w3.org/2000/svg">
<g id="Logomark" opacity="0.84">
<path id="Vector" opacity="0.7" d="M5.03741 15.464C5.78801 12.6631 8.66702 9.7841 11.4679 9.0335L28.9296 4.35394C31.7305 3.60334 33.3925 5.26539 32.6419 8.06624L27.9624 25.528C27.2118 28.3288 24.3327 31.2078 21.5319 31.9584L4.07015 36.638C1.2693 37.3886 -0.392754 35.7265 0.357844 32.9257L5.03741 15.464Z" fill="white"/>
<path id="Vector_2" opacity="0.7" d="M12.0355 22.464C12.7861 19.6631 15.6651 16.7841 18.4659 16.0335L35.9276 11.3539C38.7285 10.6033 40.3905 12.2654 39.6399 15.0662L34.9604 32.528C34.2098 35.3288 31.3308 38.2078 28.5299 38.9584L11.0682 43.638C8.26735 44.3886 6.60529 42.7265 7.35589 39.9257L12.0355 22.464Z" fill="white"/>
</g>
</svg>
