<svg width="24" height="24" viewBox="0 0 24 24" fill="none" xmlns="http://www.w3.org/2000/svg">
<g clip-path="url(#clip0_815_6676)">
<path d="M6.32293 22.4166L6.00626 19.8833C5.83473 19.8173 5.6731 19.7381 5.52137 19.6458C5.36963 19.5534 5.22119 19.4544 5.07605 19.3489L2.72085 20.3385L0.543762 16.578L2.5823 15.0343C2.56911 14.9419 2.56251 14.8529 2.56251 14.7671V14.2327C2.56251 14.147 2.56911 14.0579 2.5823 13.9655L0.543762 12.4218L2.72085 8.66138L5.07605 9.65096C5.22119 9.5454 5.37293 9.44645 5.53126 9.35409C5.6896 9.26172 5.84793 9.18256 6.00626 9.11659L6.32293 6.58325H10.6771L10.9938 9.11659C11.1653 9.18256 11.3269 9.26172 11.4787 9.35409C11.6304 9.44645 11.7788 9.5454 11.924 9.65096L14.2792 8.66138L16.4563 12.4218L14.4177 13.9655C14.4309 14.0579 14.4375 14.147 14.4375 14.2327V14.7671C14.4375 14.8529 14.4243 14.9419 14.3979 15.0343L16.4365 16.578L14.2594 20.3385L11.924 19.3489C11.7788 19.4544 11.6271 19.5534 11.4688 19.6458C11.3104 19.7381 11.1521 19.8173 10.9938 19.8833L10.6771 22.4166H6.32293ZM7.70835 20.8333H9.27189L9.54897 18.7353C9.958 18.6298 10.3373 18.4747 10.687 18.2702C11.0366 18.0657 11.3566 17.8183 11.6469 17.528L13.6063 18.3395L14.3781 16.9937L12.6761 15.7072C12.742 15.5225 12.7882 15.3279 12.8146 15.1234C12.841 14.9188 12.8542 14.711 12.8542 14.4999C12.8542 14.2888 12.841 14.081 12.8146 13.8765C12.7882 13.672 12.742 13.4773 12.6761 13.2926L14.3781 12.0062L13.6063 10.6603L11.6469 11.4916C11.3566 11.1881 11.0366 10.9341 10.687 10.7296C10.3373 10.5251 9.958 10.3701 9.54897 10.2645L9.29168 8.16659H7.72814L7.45105 10.2645C7.04203 10.3701 6.66269 10.5251 6.31303 10.7296C5.96338 10.9341 5.64341 11.1815 5.35314 11.4718L3.39376 10.6603L2.62189 12.0062L4.32397 13.2728C4.258 13.4708 4.21182 13.6687 4.18543 13.8666C4.15904 14.0645 4.14585 14.2756 4.14585 14.4999C4.14585 14.711 4.15904 14.9155 4.18543 15.1135C4.21182 15.3114 4.258 15.5093 4.32397 15.7072L2.62189 16.9937L3.39376 18.3395L5.35314 17.5083C5.64341 17.8117 5.96338 18.0657 6.31303 18.2702C6.66269 18.4747 7.04203 18.6298 7.45105 18.7353L7.70835 20.8333ZM8.5396 17.2708C9.30487 17.2708 9.958 17.0003 10.499 16.4593C11.0399 15.9183 11.3104 15.2652 11.3104 14.4999C11.3104 13.7346 11.0399 13.0815 10.499 12.5405C9.958 11.9996 9.30487 11.7291 8.5396 11.7291C7.76112 11.7291 7.1047 11.9996 6.57032 12.5405C6.03595 13.0815 5.76876 13.7346 5.76876 14.4999C5.76876 15.2652 6.03595 15.9183 6.57032 16.4593C7.1047 17.0003 7.76112 17.2708 8.5396 17.2708Z" fill="white"/>
<path d="M16.4812 8.70174L16.8748 7.4277C16.8034 7.36277 16.7398 7.29345 16.684 7.21974C16.6282 7.14602 16.5755 7.0698 16.5259 6.99105L15.1321 7.00667L14.8624 4.78356L16.2185 4.44113C16.232 4.39436 16.2481 4.35045 16.2668 4.30941L16.3832 4.05365C16.4019 4.0126 16.4246 3.97126 16.4513 3.92962L15.7679 2.79436L17.6763 1.41796L18.6388 2.34958C18.7344 2.32728 18.8319 2.30943 18.9312 2.29601C19.0305 2.2826 19.127 2.2755 19.2206 2.27471L19.9309 1.12383L22.109 1.97055L21.7155 3.24459C21.7869 3.30952 21.8505 3.37884 21.9063 3.45255C21.9621 3.52627 22.0148 3.60249 22.0644 3.68124L23.4582 3.66561L23.7279 5.88873L22.3718 6.23116C22.3583 6.27793 22.3422 6.32184 22.3235 6.36288L22.2071 6.61864C22.1884 6.65969 22.1624 6.69975 22.1291 6.73882L22.8125 7.87408L20.9041 9.25048L19.9515 8.32271C19.8559 8.34501 19.7584 8.36286 19.6591 8.37628C19.5597 8.38969 19.4633 8.39679 19.3697 8.39758L18.6594 9.54846L16.4812 8.70174ZM17.5193 8.21336L18.3014 8.51741L18.8971 7.56722C19.1247 7.59624 19.3482 7.59581 19.5677 7.56592C19.7872 7.53603 20.0011 7.47985 20.2096 7.39737L21.0129 8.16676L21.6923 7.67274L21.1211 6.72604C21.1944 6.65046 21.2599 6.5663 21.3176 6.47355C21.3754 6.3808 21.4273 6.2839 21.4733 6.18286C21.5193 6.08182 21.5579 5.9798 21.5893 5.87679C21.6206 5.77377 21.6399 5.67165 21.6472 5.57041L22.7789 5.28569L22.686 4.49147L21.5248 4.50829C21.4457 4.3066 21.341 4.12281 21.2106 3.95694C21.0803 3.79106 20.9243 3.64309 20.7427 3.51303L21.071 2.45893L20.2889 2.15488L19.6932 3.10507C19.4656 3.07605 19.2421 3.07648 19.0226 3.10637C18.8031 3.13626 18.5892 3.19244 18.3807 3.27492L17.5774 2.50553L16.898 2.99955L17.4735 3.93678C17.3974 4.01867 17.3311 4.10441 17.2748 4.19401C17.2185 4.2836 17.1659 4.38207 17.117 4.48943C17.071 4.59047 17.0331 4.69091 17.0032 4.79077C16.9732 4.89062 16.9532 4.99433 16.9431 5.10188L15.8114 5.3866L15.9043 6.18082L17.0655 6.164C17.1446 6.36569 17.2493 6.54948 17.3797 6.71535C17.51 6.88123 17.666 7.0292 17.8476 7.15926L17.5193 8.21336ZM18.7113 6.66998C19.0941 6.8188 19.4797 6.81635 19.8682 6.66263C20.2567 6.50892 20.5343 6.24893 20.701 5.88266C20.8678 5.5164 20.8747 5.15121 20.722 4.7871C20.5692 4.42299 20.3015 4.16652 19.9186 4.01771C19.5292 3.86632 19.1419 3.86813 18.7567 4.02313C18.3716 4.17812 18.0956 4.43876 17.9289 4.80502C17.7621 5.17129 17.7535 5.53583 17.9029 5.89866C18.0524 6.26149 18.3218 6.51859 18.7113 6.66998Z" fill="white"/>
</g>
<defs>
<clipPath id="clip0_815_6676">
<rect width="24" height="24" fill="white"/>
</clipPath>
</defs>
</svg>
