<svg width="66" height="65" viewBox="0 0 66 65" fill="none" xmlns="http://www.w3.org/2000/svg">
<path fill-rule="evenodd" clip-rule="evenodd" d="M17.8386 14.3716C17.8386 14.3716 18.9793 14.3113 19.8422 15.239C21.7943 17.3322 19.4432 20.601 16.7878 19.5054C14.2737 18.4669 14.7443 14.802 17.4296 14.401C17.6324 14.3716 17.6308 14.3863 17.8386 14.3716ZM17.8486 16.0329V16.0378C16.3638 16.1438 16.5567 17.924 17.7289 18.0398C18.941 18.1588 19.5546 16.2921 17.8486 16.0329Z" fill="#1570EF"/>
<path fill-rule="evenodd" clip-rule="evenodd" d="M47.8987 44.3939C47.8987 44.3939 49.0393 44.3335 49.9023 45.2612C51.8544 47.3545 49.5032 50.6232 46.8478 49.5276C44.3338 48.4891 44.8043 44.8243 47.4897 44.4232C47.6925 44.3939 47.6908 44.4085 47.8987 44.3939ZM47.9087 46.0551V46.06C46.4238 46.166 46.6167 47.9462 47.789 48.062C49.0011 48.181 49.6146 46.3143 47.9087 46.0551Z" fill="#1570EF"/>
<path fill-rule="evenodd" clip-rule="evenodd" d="M31.7712 32.0686C30.0222 32.1486 28.3332 32.8216 26.5832 32.9016C22.2792 33.0996 17.9582 33.1626 13.6572 32.9016C13.2652 32.8776 13.2162 32.0916 12.8242 32.0686H31.7712Z" fill="#1570EF"/>
<path fill-rule="evenodd" clip-rule="evenodd" d="M52.8564 32.0686C51.1263 32.1486 49.4586 32.8206 47.7286 32.9016C43.4851 33.0996 39.2238 33.1616 34.9832 32.9016C34.5911 32.8776 34.5426 32.0926 34.1504 32.0686H52.8564Z" fill="#1570EF"/>
<path fill-rule="evenodd" clip-rule="evenodd" d="M47.7679 45.8397C47.5399 45.5197 47.1809 45.3097 46.9529 44.9897C46.9459 44.9797 47.2999 40.7007 43.6949 36.8147C39.7769 32.5897 34.9919 32.9067 34.9859 32.9017C34.6679 32.6707 34.4669 32.3037 34.1499 32.0727C34.4719 31.8457 34.6609 31.4617 34.9829 31.2347C34.9829 31.2347 37.4979 31.1317 40.1719 32.3067C45.7819 34.7717 48.6249 40.1807 48.6219 44.6887C48.6219 44.7987 48.6849 44.9317 48.6189 45.0207C48.2639 45.4987 48.1229 45.3617 47.7679 45.8397Z" fill="#1570EF"/>
<path fill-rule="evenodd" clip-rule="evenodd" d="M17.7839 18.3457C18.0299 18.6507 18.4239 18.8157 18.6699 19.1207C18.7099 19.1707 18.6669 25.0827 23.7079 28.8267C27.2359 31.4467 30.9089 31.2057 30.9479 31.2347C31.2599 31.4737 31.4589 31.8407 31.7709 32.0787C31.4189 32.3267 31.1239 32.6517 30.7709 32.8997C30.7709 32.8997 28.2559 32.9367 25.6329 31.8237C17.1409 28.2217 16.9939 19.2577 17.0069 19.2347C17.2059 18.8947 17.5859 18.6857 17.7839 18.3457Z" fill="#1570EF"/>
<path fill-rule="evenodd" clip-rule="evenodd" d="M8.89502 33.9315C8.97402 30.0115 8.84001 29.9515 9.12001 29.6175C9.15601 29.5755 9.36501 29.3255 9.74901 29.3195C10.071 29.3145 13.639 29.2605 13.779 29.2805C14.083 29.3255 14.354 29.5535 14.449 29.8455C14.517 30.0515 14.517 34.0325 14.449 34.2395C14.344 34.5625 14.022 34.8165 13.649 34.8135C13.323 34.8105 9.70401 34.7815 9.57501 34.7575C9.43201 34.7305 9.29702 34.6665 9.18602 34.5715C8.91002 34.3355 8.98702 34.2865 8.89502 33.9315L12.824 33.1375V30.9485L10.585 30.9765L8.89502 33.9315Z" fill="#1570EF"/>
<path fill-rule="evenodd" clip-rule="evenodd" d="M30.02 33.9572C30.099 30.0372 29.965 29.9772 30.245 29.6432C30.281 29.6012 30.49 29.3512 30.874 29.3452C31.196 29.3402 34.764 29.2862 34.904 29.3062C35.208 29.3512 35.479 29.5792 35.574 29.8712C35.642 30.0772 35.642 34.0582 35.574 34.2652C35.469 34.5882 35.147 34.8422 34.774 34.8392C34.448 34.8362 30.829 34.8072 30.7 34.7832C30.557 34.7562 30.422 34.6922 30.311 34.5972C30.035 34.3612 30.112 34.3122 30.02 33.9572L33.949 33.1632V30.9742L31.71 31.0022L30.02 33.9572Z" fill="#1570EF"/>
<path fill-rule="evenodd" clip-rule="evenodd" d="M51.1899 33.9572C51.2689 30.0372 51.1349 29.9772 51.4149 29.6432C51.4509 29.6012 51.6599 29.3512 52.0439 29.3452C52.3659 29.3402 55.9339 29.2862 56.0739 29.3062C56.3779 29.3512 56.6489 29.5792 56.7439 29.8712C56.8119 30.0772 56.8119 34.0582 56.7439 34.2652C56.6389 34.5882 56.3169 34.8422 55.9439 34.8392C55.6179 34.8362 51.9989 34.8072 51.8699 34.7832C51.7269 34.7562 51.5919 34.6922 51.4809 34.5972C51.2049 34.3612 51.2819 34.3122 51.1899 33.9572L55.1189 33.1632V30.9742L52.8799 31.0022L51.1899 33.9572Z" fill="#1570EF"/>
</svg>
