<svg width="66" height="65" viewBox="0 0 66 65" fill="none" xmlns="http://www.w3.org/2000/svg">
<path fill-rule="evenodd" clip-rule="evenodd" d="M10.6401 8.89375C53.0271 8.96875 53.1591 7.89674 56.1201 8.97474C56.5981 9.14874 56.9422 9.63574 56.9422 10.1487C56.9482 25.1337 56.9482 40.1187 56.9422 55.1037C56.9422 55.7817 56.3712 56.3537 55.6922 56.3537C40.7211 56.3597 25.7511 56.3597 10.7801 56.3537C10.1031 56.3537 9.53315 55.7847 9.53015 55.1077C9.47715 40.1208 9.43115 25.1337 9.39015 10.1477C9.38815 9.62774 9.70014 9.31474 9.75414 9.26074C10.1041 8.90974 10.1591 9.00875 10.6401 8.89375L12.0261 53.8537H54.4422V11.3987L10.6401 8.89375Z" fill="#1570EF"/>
<path fill-rule="evenodd" clip-rule="evenodd" d="M22.2574 23.0497L9.56641 29.1597C21.5274 20.6217 21.4654 20.2607 22.3774 20.3837C22.8724 20.4517 22.8414 20.5417 30.3494 24.3647C32.6734 25.5477 35.1814 26.4257 37.3224 27.9147C37.8064 28.2517 37.6784 29.0387 37.8694 29.5957C37.8734 29.6087 37.9174 29.6097 37.9044 29.6137C37.3354 29.7987 36.7404 30.3747 36.1884 30.1427C31.3834 28.1267 27.0624 25.0657 22.2574 23.0497Z" fill="#1570EF"/>
<path fill-rule="evenodd" clip-rule="evenodd" d="M28.791 26.3675C30.908 21.0625 30.633 20.7465 31.536 20.4395C31.669 20.3945 31.799 20.3735 31.939 20.3725C32.325 20.3695 36.65 20.3395 36.755 20.3725C37.316 20.5525 37.582 21.2125 38.005 21.6225C38.015 21.6325 38.056 21.6125 38.047 21.6225C37.623 22.0465 37.315 22.6605 36.755 22.8725C36.129 23.1095 35.416 22.8725 34.746 22.8725C34.034 22.8725 33.181 22.4475 32.61 22.8725C31.601 23.6235 31.452 25.1675 30.524 26.0165C30.089 26.4145 29.226 25.9695 28.791 26.3675Z" fill="#1570EF"/>
<path fill-rule="evenodd" clip-rule="evenodd" d="M45.5842 22.8417C45.8052 21.4187 45.7362 19.9597 45.9572 18.5357C46.0242 18.1047 46.6032 17.7256 46.4422 17.3206C45.5192 14.9996 43.7302 13.0817 42.8572 10.7417C42.6512 10.1897 43.5632 9.59765 43.3572 9.04565C48.8412 16.5957 49.1372 16.5316 49.0662 17.3466C49.0502 17.5296 48.6192 18.6087 48.5762 18.7167C48.1282 19.8397 47.9422 21.1076 47.2322 22.0856C46.8772 22.5756 45.9392 22.3527 45.5842 22.8417Z" fill="#1570EF"/>
<path fill-rule="evenodd" clip-rule="evenodd" d="M44.1851 44.3286C45.3881 43.4196 46.0181 41.8846 47.2211 40.9756C49.6661 39.1286 52.2561 37.4256 55.0331 36.1326C55.5671 35.8836 56.2201 36.7846 56.7541 36.5356L44.1851 44.3286Z" fill="#1570EF"/>
<path fill-rule="evenodd" clip-rule="evenodd" d="M46.584 34.2646C47.262 35.0186 48.442 35.1896 49.119 35.9436C50.126 37.0636 51.013 38.3506 51.527 39.7656C51.729 40.3196 50.935 40.9356 51.136 41.4896L46.584 34.2646Z" fill="#1570EF"/>
<path fill-rule="evenodd" clip-rule="evenodd" d="M21.1021 40.2146C21.8401 41.7516 23.3211 42.8506 24.0591 44.3876C25.6481 47.6946 27.0651 51.1136 28.0361 54.6516C28.1921 55.2196 27.1661 55.7006 27.3221 56.2686L21.1021 40.2146Z" fill="#1570EF"/>
<path fill-rule="evenodd" clip-rule="evenodd" d="M31.2391 40.6445C30.3721 41.4665 30.1271 42.8105 29.2601 43.6335C27.7461 45.0695 26.0661 46.3855 24.2001 47.3205C23.6741 47.5845 22.9811 46.7825 22.4541 47.0465L31.2391 40.6445Z" fill="#1570EF"/>
</svg>
