<svg width="66" height="65" viewBox="0 0 66 65" fill="none" xmlns="http://www.w3.org/2000/svg">
<path fill-rule="evenodd" clip-rule="evenodd" d="M44.6567 49.1598L44.6717 38.5788L52.8617 34.2998L52.8957 44.7028L44.6567 49.1598Z" stroke="#1570EF" stroke-width="1.25" stroke-miterlimit="1.5" stroke-linecap="round" stroke-linejoin="round"/>
<path d="M52.8609 20.8048L44.6569 16.3328L36.4839 20.6988L44.6569 25.4998M52.8609 20.8048V31.0928L44.6459 35.8358L44.6569 25.4998M52.8609 20.8048L44.6569 25.4998" stroke="#1570EF" stroke-width="1.25" stroke-miterlimit="1.5" stroke-linecap="round" stroke-linejoin="round"/>
<path fill-rule="evenodd" clip-rule="evenodd" d="M25.2905 26.7609L33.4265 22.4639L41.6435 26.7969L33.4255 31.2719L25.2905 26.7609Z" stroke="#1570EF" stroke-width="1.25" stroke-miterlimit="1.5" stroke-linecap="round" stroke-linejoin="round"/>
<path d="M25.2905 26.761V37.072L33.4255 41.701V31.242" stroke="#1570EF" stroke-width="1.25" stroke-miterlimit="1.5" stroke-linecap="round" stroke-linejoin="round"/>
<path d="M33.4668 41.6769L41.6438 36.9569V26.7969" stroke="#1570EF" stroke-width="1.25" stroke-miterlimit="1.5" stroke-linecap="round" stroke-linejoin="round"/>
<path d="M13.9287 20.8018V31.1768" stroke="#1570EF" stroke-width="1.25" stroke-miterlimit="1.5" stroke-linecap="round" stroke-linejoin="round"/>
<path d="M13.9287 34.387V44.594" stroke="#1570EF" stroke-width="1.25" stroke-miterlimit="1.5" stroke-linecap="round" stroke-linejoin="round"/>
<path d="M22.0547 49.285V38.838L13.9287 34.387" stroke="#1570EF" stroke-width="1.25" stroke-miterlimit="1.5" stroke-linecap="round" stroke-linejoin="round"/>
<path d="M13.9287 44.5938L22.0547 49.2848" stroke="#1570EF" stroke-width="1.25" stroke-miterlimit="1.5" stroke-linecap="round" stroke-linejoin="round"/>
<path d="M22.0547 49.2849L25.0517 47.5549" stroke="#1570EF" stroke-width="1.25" stroke-miterlimit="1.5" stroke-linecap="round" stroke-linejoin="round"/>
<path fill-rule="evenodd" clip-rule="evenodd" d="M25.2905 40.1619V50.7449L33.4255 55.4409V44.8429L25.2905 40.1619Z" stroke="#1570EF" stroke-width="1.25" stroke-miterlimit="1.5" stroke-linecap="round" stroke-linejoin="round"/>
<path d="M33.4258 44.8429L41.5088 40.3779L41.6438 50.7759L33.4258 55.4409" stroke="#1570EF" stroke-width="1.25" stroke-miterlimit="1.5" stroke-linecap="round" stroke-linejoin="round"/>
<path d="M13.9287 20.8018L22.1537 25.3448V35.8478L14.0197 31.1518" stroke="#1570EF" stroke-width="1.25" stroke-miterlimit="1.5" stroke-linecap="round" stroke-linejoin="round"/>
<path d="M22.1537 25.3448L30.4067 20.8808L22.1537 16.3608L13.9287 20.5968" stroke="#1570EF" stroke-width="1.25" stroke-miterlimit="1.5" stroke-linecap="round" stroke-linejoin="round"/>
<path fill-rule="evenodd" clip-rule="evenodd" d="M25.2905 14.5619L33.4665 10.3179L41.6435 14.6489L33.4265 19.2589L25.2905 14.5619Z" stroke="#1570EF" stroke-width="1.25" stroke-miterlimit="1.5" stroke-linecap="round" stroke-linejoin="round"/>
<path d="M33.4268 19.2588V22.5818" stroke="#1570EF" stroke-width="1.25" stroke-miterlimit="1.5" stroke-linecap="round" stroke-linejoin="round"/>
<path d="M41.6436 14.6489V17.8849" stroke="#1570EF" stroke-width="1.25" stroke-miterlimit="1.5" stroke-linecap="round" stroke-linejoin="round"/>
<path d="M25.2905 14.5618V17.7348" stroke="#1570EF" stroke-width="1.25" stroke-miterlimit="1.5" stroke-linecap="round" stroke-linejoin="round"/>
<path d="M30.4067 20.8809V23.8669" stroke="#1570EF" stroke-width="1.25" stroke-miterlimit="1.5" stroke-linecap="round" stroke-linejoin="round"/>
<path d="M22.1538 35.8478L25.2648 34.0518" stroke="#1570EF" stroke-width="1.25" stroke-miterlimit="1.5" stroke-linecap="round" stroke-linejoin="round"/>
<path d="M22.0547 38.8379L25.1757 37.0359" stroke="#1570EF" stroke-width="1.25" stroke-miterlimit="1.5" stroke-linecap="round" stroke-linejoin="round"/>
<path d="M13.9287 34.3869L16.7377 32.7649" stroke="#1570EF" stroke-width="1.25" stroke-miterlimit="1.5" stroke-linecap="round" stroke-linejoin="round"/>
<path d="M25.3188 40.1618L28.0328 38.6848" stroke="#1570EF" stroke-width="1.25" stroke-miterlimit="1.5" stroke-linecap="round" stroke-linejoin="round"/>
<path d="M41.5086 40.3778L38.5996 38.6978" stroke="#1570EF" stroke-width="1.25" stroke-miterlimit="1.5" stroke-linecap="round" stroke-linejoin="round"/>
<path d="M44.6566 38.5428L41.6006 36.7788" stroke="#1570EF" stroke-width="1.25" stroke-miterlimit="1.5" stroke-linecap="round" stroke-linejoin="round"/>
<path d="M44.6715 35.8209L41.6865 34.0979" stroke="#1570EF" stroke-width="1.25" stroke-miterlimit="1.5" stroke-linecap="round" stroke-linejoin="round"/>
<path d="M52.8606 34.3008L50.2046 32.7678" stroke="#1570EF" stroke-width="1.25" stroke-miterlimit="1.5" stroke-linecap="round" stroke-linejoin="round"/>
<path d="M36.4839 20.699V23.784" stroke="#1570EF" stroke-width="1.25" stroke-miterlimit="1.5" stroke-linecap="round" stroke-linejoin="round"/>
<path d="M44.6718 49.152L41.6318 47.396" stroke="#1570EF" stroke-width="1.25" stroke-miterlimit="1.5" stroke-linecap="round" stroke-linejoin="round"/>
</svg>
