<svg width="141" height="48" viewBox="0 0 141 48" fill="none" xmlns="http://www.w3.org/2000/svg">
<path d="M10.7922 15.5454V15.0454H10.2922H7.65869H7.15869V15.5454V32.9999V33.4999H7.65869H10.2922H10.7922V32.9999V15.5454ZM23.1505 20.1866L23.2005 20.6306H23.6473H26.1871H26.6994L26.687 20.1185C26.6619 19.0858 26.3593 18.1572 25.7744 17.3494C25.1953 16.544 24.4077 15.9208 23.4293 15.4743C22.4493 15.0245 21.3335 14.8068 20.0934 14.8068C18.8627 14.8068 17.7403 15.028 16.7355 15.4812C15.7323 15.9279 14.9215 16.563 14.3197 17.3905C13.7067 18.2333 13.4059 19.2162 13.4059 20.3181C13.4059 21.6581 13.8597 22.7758 14.7883 23.6199L14.7895 23.6211C15.6813 24.4261 16.8664 25.0162 18.3169 25.4113C18.317 25.4113 18.317 25.4113 18.3171 25.4113L20.3794 25.9738L20.3794 25.9738L20.3835 25.9749C20.9884 26.1344 21.5231 26.3168 21.9898 26.5206L21.9917 26.5215C22.4398 26.715 22.7685 26.9485 22.9991 27.2108L22.9991 27.2108L23.0023 27.2144C23.2019 27.4371 23.3178 27.7347 23.3178 28.1505C23.3178 28.6118 23.1847 28.9983 22.9229 29.3316C22.65 29.6734 22.2654 29.9554 21.7467 30.1671C21.2369 30.3719 20.6404 30.4801 19.9485 30.4801C19.3229 30.4801 18.7583 30.3883 18.25 30.2108C17.7623 30.033 17.3738 29.7701 17.0712 29.4259C16.7922 29.0971 16.6213 28.6761 16.5775 28.1357L16.5402 27.6761H16.0791H13.4371H12.9093L12.9378 28.2031C12.9991 29.3361 13.3229 30.3382 13.9231 31.1911L13.9241 31.1925C14.5226 32.0367 15.3459 32.6793 16.3742 33.1261C17.4055 33.5743 18.6071 33.7897 19.9655 33.7897C21.3811 33.7897 22.6184 33.5599 23.6603 33.0792C24.697 32.6034 25.5107 31.942 26.0755 31.0858C26.6451 30.2309 26.9257 29.2555 26.9257 28.1761C26.9257 27.3262 26.7562 26.5661 26.395 25.9151C26.0553 25.2928 25.6063 24.7674 25.0496 24.3436C24.5134 23.9354 23.9311 23.6061 23.3038 23.3564C22.7004 23.1162 22.1085 22.9245 21.5283 22.7822L19.8271 22.3399L19.8271 22.3399L19.8226 22.3387C19.4997 22.258 19.1609 22.1552 18.806 22.0297C18.4693 21.9052 18.155 21.7531 17.8623 21.5738C17.6028 21.4062 17.3973 21.2037 17.2397 20.9659C17.1071 20.7579 17.0309 20.4979 17.0309 20.1647C17.0309 19.7737 17.1408 19.438 17.3595 19.1404C17.5879 18.8316 17.917 18.576 18.3709 18.3836L18.3709 18.3836L18.3751 18.3818C18.821 18.1879 19.3694 18.0823 20.0337 18.0823C20.9589 18.0823 21.6837 18.2894 22.2409 18.6689L22.2409 18.6689L22.2433 18.6705C22.7776 19.0298 23.0756 19.5219 23.1505 20.1866ZM29.0728 32.9999V33.4999H29.5728H32.2063H32.7063V32.9999V26.8948H35.657L39.0612 33.2364L39.2026 33.4999H39.5017H42.5017H43.3456L42.9403 32.7598L39.3406 26.1864C39.3526 26.1804 39.3645 26.1745 39.3765 26.1685C40.356 25.6786 41.1052 24.9828 41.6016 24.0793C42.097 23.1824 42.337 22.1566 42.337 21.017C42.337 19.8734 42.1006 18.8436 41.6125 17.9421C41.118 17.0228 40.3711 16.3093 39.3923 15.8011C38.4085 15.2873 37.2007 15.0454 35.7943 15.0454H29.5728H29.0728V15.5454V32.9999ZM35.5472 23.6278H32.7063V18.3039H35.5131C36.3387 18.3039 36.9569 18.429 37.3984 18.6451L37.3984 18.6451L37.4042 18.6478C37.8553 18.8615 38.1641 19.1576 38.3588 19.5338L38.3588 19.5338L38.361 19.5379C38.5714 19.9353 38.6864 20.4228 38.6864 21.017C38.6864 21.6071 38.5736 22.0815 38.3708 22.4596C38.179 22.8171 37.8729 23.101 37.4206 23.3058L37.4187 23.3066C36.9725 23.5108 36.3575 23.6278 35.5472 23.6278ZM59.626 29.3069L59.6264 29.3061C60.3514 27.8802 60.7034 26.1966 60.7034 24.2727C60.7034 22.3492 60.3516 20.6683 59.6264 19.2478C58.9061 17.8312 57.9099 16.73 56.6361 15.9617C55.3693 15.1885 53.9343 14.8068 52.3455 14.8068C50.7511 14.8068 49.3105 15.1885 48.0381 15.9615C46.7695 16.73 45.7762 17.8314 45.056 19.2478C44.3308 20.6683 43.979 22.3492 43.979 24.2727C43.979 26.1912 44.3311 27.8719 45.056 29.2976C45.7761 30.7137 46.769 31.8175 48.0366 32.5915L48.039 32.5929C49.3114 33.36 50.7516 33.7386 52.3455 33.7386C53.934 33.7386 55.3689 33.3598 56.6358 32.5924L56.6364 32.592C57.9094 31.8185 58.9055 30.7179 59.626 29.3069ZM56.4518 20.8955L56.4533 20.8986C56.8733 21.7855 57.0955 22.9035 57.0955 24.2727C57.0955 25.6417 56.8734 26.7631 56.4528 27.6562L56.4523 27.6574C56.0323 28.555 55.4664 29.2153 54.7619 29.6632C54.058 30.1087 53.2573 30.3352 52.3455 30.3352C51.4275 30.3352 50.6243 30.1084 49.9209 29.6634C49.222 29.2156 48.6557 28.5551 48.2299 27.6568C47.8147 26.7633 47.5955 25.6416 47.5955 24.2727C47.5955 22.9033 47.8149 21.7847 48.2297 20.8974C48.6559 19.9926 49.2222 19.3328 49.9198 18.8912L49.9219 18.8898C50.6253 18.4394 51.4281 18.2102 52.3455 18.2102C53.2565 18.2102 54.0566 18.4391 54.7605 18.8898L54.7641 18.892C55.4664 19.3335 56.0317 19.9924 56.4518 20.8955Z" fill="black" stroke="black"/>
</svg>
