<svg width="99" height="48" viewBox="0 0 99 48" fill="none" xmlns="http://www.w3.org/2000/svg">
<path d="M6.4517 32.6932H0V15.2386H6.44318C8.22159 15.2386 9.75284 15.5881 11.0369 16.2869C12.3267 16.9801 13.321 17.9801 14.0199 19.2869C14.7188 20.5881 15.0682 22.1449 15.0682 23.9574C15.0682 25.7756 14.7188 27.3381 14.0199 28.6449C13.3267 29.9517 12.3352 30.9545 11.0455 31.6534C9.75568 32.3466 8.22443 32.6932 6.4517 32.6932ZM4.21875 29.0966H6.28977C7.26705 29.0966 8.09375 28.9318 8.76989 28.6023C9.4517 28.267 9.96591 27.7244 10.3125 26.9744C10.6648 26.2188 10.8409 25.2131 10.8409 23.9574C10.8409 22.7017 10.6648 21.7017 10.3125 20.9574C9.96023 20.2074 9.44034 19.6676 8.75284 19.3381C8.07102 19.0028 7.23011 18.8352 6.23011 18.8352H4.21875V29.0966Z" fill="black"/>
<path d="M17.5312 32.6932V15.2386H24.7415C26.0483 15.2386 27.1761 15.4744 28.125 15.946C29.0795 16.4119 29.8153 17.0824 30.3324 17.9574C30.8494 18.8267 31.108 19.858 31.108 21.0511C31.108 22.2614 30.8438 23.2898 30.3153 24.1364C29.7869 24.9773 29.0369 25.6193 28.0653 26.0625C27.0938 26.5 25.9432 26.7188 24.6136 26.7188H20.054V23.3949H23.8295C24.4659 23.3949 24.9972 23.3125 25.4233 23.1477C25.8551 22.9773 26.1818 22.7216 26.4034 22.3807C26.625 22.0341 26.7358 21.5909 26.7358 21.0511C26.7358 20.5114 26.625 20.0653 26.4034 19.7131C26.1818 19.3551 25.8551 19.0881 25.4233 18.9119C24.9915 18.7301 24.4602 18.6392 23.8295 18.6392H21.75V32.6932H17.5312ZM27.358 24.7159L31.7045 32.6932H27.1023L22.8409 24.7159H27.358Z" fill="black"/>
<path d="M39.8736 32.6932H33.4219V15.2386H39.8651C41.6435 15.2386 43.1747 15.5881 44.4588 16.2869C45.7486 16.9801 46.7429 17.9801 47.4418 19.2869C48.1406 20.5881 48.4901 22.1449 48.4901 23.9574C48.4901 25.7756 48.1406 27.3381 47.4418 28.6449C46.7486 29.9517 45.7571 30.9545 44.4673 31.6534C43.1776 32.3466 41.6463 32.6932 39.8736 32.6932ZM37.6406 29.0966H39.7116C40.6889 29.0966 41.5156 28.9318 42.1918 28.6023C42.8736 28.267 43.3878 27.7244 43.7344 26.9744C44.0866 26.2188 44.2628 25.2131 44.2628 23.9574C44.2628 22.7017 44.0866 21.7017 43.7344 20.9574C43.3821 20.2074 42.8622 19.6676 42.1747 19.3381C41.4929 19.0028 40.652 18.8352 39.652 18.8352H37.6406V29.0966Z" fill="black"/>
<path d="M67.4276 23.9659C67.4276 25.8864 67.0582 27.5142 66.3196 28.8494C65.581 30.1847 64.581 31.1989 63.3196 31.892C62.0639 32.5852 60.6548 32.9318 59.0923 32.9318C57.5241 32.9318 56.1122 32.5824 54.8565 31.8835C53.6009 31.1847 52.6037 30.1705 51.8651 28.8409C51.1321 27.5057 50.7656 25.8807 50.7656 23.9659C50.7656 22.0455 51.1321 20.4176 51.8651 19.0824C52.6037 17.7472 53.6009 16.733 54.8565 16.0398C56.1122 15.3466 57.5241 15 59.0923 15C60.6548 15 62.0639 15.3466 63.3196 16.0398C64.581 16.733 65.581 17.7472 66.3196 19.0824C67.0582 20.4176 67.4276 22.0455 67.4276 23.9659ZM63.1151 23.9659C63.1151 22.8295 62.9531 21.8693 62.6293 21.0852C62.3111 20.3011 61.8509 19.7074 61.2486 19.304C60.652 18.9006 59.9332 18.6989 59.0923 18.6989C58.2571 18.6989 57.5384 18.9006 56.9361 19.304C56.3338 19.7074 55.8707 20.3011 55.5469 21.0852C55.2287 21.8693 55.0696 22.8295 55.0696 23.9659C55.0696 25.1023 55.2287 26.0625 55.5469 26.8466C55.8707 27.6307 56.3338 28.2244 56.9361 28.6278C57.5384 29.0313 58.2571 29.233 59.0923 29.233C59.9332 29.233 60.652 29.0313 61.2486 28.6278C61.8509 28.2244 62.3111 27.6307 62.6293 26.8466C62.9531 26.0625 63.1151 25.1023 63.1151 23.9659Z" fill="black"/>
</svg>
